v -0.008700 0.064375 0.025565
v -0.014700 0.064375 0.025565
v -0.008700 0.064512 0.026077
v -0.014700 0.064512 0.026077
v -0.008700 0.064512 0.026077
v -0.014700 0.064512 0.026077
v -0.008700 0.064888 0.026453
v -0.014700 0.064888 0.026453
v -0.008700 0.064888 0.026453
v -0.014700 0.064888 0.026453
v -0.008700 0.065400 0.026590
v -0.014700 0.065400 0.026590
v -0.008700 0.065400 0.026590
v -0.014700 0.065400 0.026590
v -0.008700 0.065913 0.026453
v -0.014700 0.065913 0.026453
v -0.008700 0.065913 0.026453
v -0.014700 0.065913 0.026453
v -0.008700 0.066288 0.026077
v -0.014700 0.066288 0.026077
v -0.008700 0.066288 0.026077
v -0.014700 0.066288 0.026077
v -0.008700 0.066425 0.025565
v -0.014700 0.066425 0.025565
v -0.008700 0.064375 -0.025435
v -0.014700 0.064375 -0.025435
v -0.008700 0.064512 -0.024922
v -0.014700 0.064512 -0.024922
v -0.008700 0.064512 -0.024922
v -0.014700 0.064512 -0.024922
v -0.008700 0.064888 -0.024547
v -0.014700 0.064888 -0.024547
v -0.008700 0.064888 -0.024547
v -0.014700 0.064888 -0.024547
v -0.008700 0.065400 -0.024410
v -0.014700 0.065400 -0.024410
v -0.008700 0.065400 -0.024410
v -0.014700 0.065400 -0.024410
v -0.008700 0.065913 -0.024547
v -0.014700 0.065913 -0.024547
v -0.008700 0.065913 -0.024547
v -0.014700 0.065913 -0.024547
v -0.008700 0.066288 -0.024922
v -0.014700 0.066288 -0.024922
v -0.008700 0.066288 -0.024922
v -0.014700 0.066288 -0.024922
v -0.008700 0.066425 -0.025435
v -0.014700 0.066425 -0.025435
v -0.008084 0.065400 0.025565
v -0.008700 0.064888 0.026453
v -0.008700 0.065400 0.026590
v -0.008700 0.064512 0.026077
v -0.008700 0.064888 0.026453
v -0.008084 0.065400 0.025565
v -0.008700 0.064375 0.025565
v -0.008700 0.064512 0.026077
v -0.008084 0.065400 0.025565
v -0.008084 0.065400 0.025565
v -0.008700 0.066288 0.026077
v -0.008700 0.066425 0.025565
v -0.008700 0.065913 0.026453
v -0.008700 0.066288 0.026077
v -0.008084 0.065400 0.025565
v -0.008700 0.065400 0.026590
v -0.008700 0.065913 0.026453
v -0.008084 0.065400 0.025565
v -0.008084 0.065400 -0.025435
v -0.008700 0.064888 -0.024547
v -0.008700 0.065400 -0.024410
v -0.008700 0.064512 -0.024922
v -0.008700 0.064888 -0.024547
v -0.008084 0.065400 -0.025435
v -0.008700 0.064375 -0.025435
v -0.008700 0.064512 -0.024922
v -0.008084 0.065400 -0.025435
v -0.008084 0.065400 -0.025435
v -0.008700 0.066288 -0.024922
v -0.008700 0.066425 -0.025435
v -0.008700 0.065913 -0.024547
v -0.008700 0.066288 -0.024922
v -0.008084 0.065400 -0.025435
v -0.008700 0.065400 -0.024410
v -0.008700 0.065913 -0.024547
v -0.008084 0.065400 -0.025435
v -0.017000 0.056900 -0.007435
v -0.017000 0.056900 -0.020393
v -0.011200 0.056900 -0.007435
v -0.006700 0.056900 -0.020393
v -0.011200 0.056900 0.007565
v -0.006700 0.056900 0.020523
v -0.017000 0.056900 0.007565
v -0.017000 0.056900 0.020523
v -0.017000 0.062400 0.022715
v -0.017000 0.061825 0.022715
v -0.017000 0.062400 0.027168
v -0.017000 0.061031 0.022551
v -0.017000 0.057443 0.021892
v -0.017000 0.058900 0.007565
v -0.017000 0.056900 0.007565
v -0.017000 0.058900 0.019731
v -0.017000 0.056900 0.020523
v -0.017000 0.059041 0.020467
v -0.017000 0.057041 0.021259
v -0.017000 0.059443 0.021100
v -0.017000 0.060368 0.022085
v -0.011200 0.056900 0.007565
v -0.017000 0.056900 0.007565
v -0.011200 0.058900 0.007565
v -0.017000 0.058900 0.007565
v -0.011200 0.056900 -0.007435
v -0.011200 0.056900 0.007565
v -0.011200 0.058900 -0.007435
v -0.011200 0.058900 0.007565
v -0.011200 0.058900 -0.007435
v -0.017000 0.058900 -0.007435
v -0.011200 0.056900 -0.007435
v -0.017000 0.056900 -0.007435
v -0.017000 0.061825 -0.022585
v -0.017000 0.062400 -0.022585
v -0.017000 0.062400 -0.027038
v -0.017000 0.057443 -0.021762
v -0.017000 0.060368 -0.021955
v -0.017000 0.061031 -0.022421
v -0.017000 0.056900 -0.007435
v -0.017000 0.058900 -0.007435
v -0.017000 0.056900 -0.020393
v -0.017000 0.058900 -0.019601
v -0.017000 0.057041 -0.021129
v -0.017000 0.059041 -0.020337
v -0.017000 0.059443 -0.020970
v -0.006700 0.056900 -0.020393
v -0.017000 0.056900 -0.020393
v -0.017000 0.057041 -0.021129
v -0.006700 0.057041 -0.021129
v -0.006700 0.057041 -0.021129
v -0.017000 0.057041 -0.021129
v -0.017000 0.057443 -0.021762
v -0.006700 0.057443 -0.021762
v -0.006700 0.066954 -0.028218
v -0.006700 0.066806 -0.028366
v -0.006700 0.066267 -0.029179
v -0.006700 0.066316 -0.028209
v -0.006700 0.065960 -0.029545
v -0.006700 0.065870 -0.027888
v -0.006700 0.062083 -0.024101
v -0.006700 0.057443 -0.021762
v -0.006700 0.061870 -0.023782
v -0.006700 0.061795 -0.023405
v -0.006700 0.066316 0.028339
v -0.006700 0.066813 0.028497
v -0.006700 0.066267 0.029309
v -0.006700 0.064641 -0.029423
v -0.006700 0.065042 -0.029683
v -0.006700 0.065518 -0.029727
v -0.006700 0.061795 0.023535
v -0.006700 0.061870 0.023912
v -0.006700 0.057443 0.021892
v -0.006700 0.062083 0.024231
v -0.006700 0.064641 0.029553
v -0.006700 0.065870 0.028018
v -0.006700 0.065042 0.029813
v -0.006700 0.065518 0.029857
v -0.006700 0.065960 0.029675
v -0.006700 0.057041 -0.021129
v -0.006700 0.056900 -0.020393
v -0.006700 0.056900 0.020523
v -0.006700 0.057041 0.021259
v -0.006700 0.057443 0.021892
v -0.017000 0.057443 0.021892
v -0.017000 0.057041 0.021259
v -0.006700 0.057041 0.021259
v -0.006700 0.057041 0.021259
v -0.017000 0.057041 0.021259
v -0.017000 0.056900 0.020523
v -0.006700 0.056900 0.020523
v -0.017000 0.062400 0.027168
v -0.017000 0.057443 0.021892
v -0.014700 0.062400 0.027168
v -0.006700 0.057443 0.021892
v -0.014700 0.064641 0.029553
v -0.006700 0.064641 0.029553
v -0.014700 0.062400 0.022715
v -0.017000 0.062400 0.022715
v -0.014700 0.062400 0.027168
v -0.017000 0.062400 0.027168
v -0.011200 0.058900 0.007565
v -0.017000 0.058900 0.007565
v -0.017000 0.058900 0.019731
v -0.008700 0.058900 -0.019601
v -0.017000 0.058900 -0.019601
v -0.017000 0.058900 -0.007435
v -0.011200 0.058900 -0.007435
v -0.008700 0.058900 0.019731
v -0.014700 0.062400 -0.027038
v -0.017000 0.062400 -0.027038
v -0.014700 0.062400 -0.022585
v -0.017000 0.062400 -0.022585
v -0.014700 0.064641 -0.029423
v -0.006700 0.064641 -0.029423
v -0.014700 0.062400 -0.027038
v -0.006700 0.057443 -0.021762
v -0.017000 0.062400 -0.027038
v -0.017000 0.057443 -0.021762
v -0.006700 0.066267 0.029309
v -0.014700 0.066267 0.029309
v -0.014700 0.065960 0.029675
v -0.006700 0.065960 0.029675
v -0.006700 0.065960 0.029675
v -0.014700 0.065960 0.029675
v -0.014700 0.065518 0.029857
v -0.006700 0.065518 0.029857
v -0.006700 0.065518 0.029857
v -0.014700 0.065518 0.029857
v -0.014700 0.065042 0.029813
v -0.006700 0.065042 0.029813
v -0.006700 0.065042 0.029813
v -0.014700 0.065042 0.029813
v -0.014700 0.064641 0.029553
v -0.006700 0.064641 0.029553
v -0.006700 0.065870 0.028018
v -0.006700 0.062083 0.024231
v -0.003526 0.066266 0.027622
v -0.003526 0.062643 0.024000
v -0.003526 0.062354 0.023303
v -0.006700 0.061795 0.023535
v -0.003526 0.062354 -0.023173
v -0.006700 0.061795 -0.023405
v -0.006700 0.062083 -0.024101
v -0.006700 0.065870 -0.027888
v -0.003526 0.062643 -0.023870
v -0.003526 0.066266 -0.027492
v -0.006700 0.064641 -0.029423
v -0.014700 0.064641 -0.029423
v -0.014700 0.065042 -0.029683
v -0.006700 0.065042 -0.029683
v -0.006700 0.065042 -0.029683
v -0.014700 0.065042 -0.029683
v -0.014700 0.065518 -0.029727
v -0.006700 0.065518 -0.029727
v -0.006700 0.065518 -0.029727
v -0.014700 0.065518 -0.029727
v -0.014700 0.065960 -0.029545
v -0.006700 0.065960 -0.029545
v -0.006700 0.065960 -0.029545
v -0.014700 0.065960 -0.029545
v -0.014700 0.066267 -0.029179
v -0.006700 0.066267 -0.029179
v -0.014700 0.062400 0.027168
v -0.014700 0.064375 0.025565
v -0.014700 0.062400 0.022715
v -0.014700 0.064512 0.025053
v -0.014700 0.065518 0.029857
v -0.014700 0.065960 0.029675
v -0.014700 0.065400 0.026590
v -0.014700 0.066267 0.029309
v -0.014700 0.065913 0.026453
v -0.014700 0.066954 0.028348
v -0.014700 0.066288 0.026077
v -0.014700 0.065042 0.029813
v -0.014700 0.064888 0.026453
v -0.014700 0.064641 0.029553
v -0.014700 0.064512 0.026077
v -0.014700 0.064888 0.024677
v -0.014700 0.065400 0.024540
v -0.014700 0.068900 0.022715
v -0.014700 0.065913 0.024677
v -0.014700 0.066288 0.025053
v -0.014700 0.068900 0.025615
v -0.014700 0.066425 0.025565
v -0.014700 0.068755 0.026342
v -0.014700 0.068343 0.026959
v -0.017000 0.061825 0.022715
v -0.017000 0.062400 0.022715
v -0.014700 0.062400 0.022715
v -0.007200 0.068900 0.022715
v -0.007200 0.066900 0.022715
v -0.014700 0.068900 0.022715
v -0.008700 0.066900 0.022715
v -0.008700 0.061825 0.022715
v -0.017000 0.059443 0.021100
v -0.008700 0.059443 0.021100
v -0.017000 0.059041 0.020467
v -0.008700 0.059041 0.020467
v -0.017000 0.059041 0.020467
v -0.008700 0.059041 0.020467
v -0.017000 0.058900 0.019731
v -0.008700 0.058900 0.019731
v -0.008700 0.065900 -0.022317
v -0.008700 0.066900 -0.022585
v -0.008700 0.061825 -0.022585
v -0.008700 0.065168 -0.021585
v -0.008700 0.060368 -0.021955
v -0.008700 0.059443 -0.020970
v -0.008700 0.064900 -0.020585
v -0.008700 0.066900 0.022715
v -0.008700 0.065900 0.022447
v -0.008700 0.061825 0.022715
v -0.008700 0.065168 0.021715
v -0.008700 0.061031 0.022551
v -0.008700 0.064900 0.020715
v -0.008700 0.060368 0.022085
v -0.008700 0.059443 0.021100
v -0.008700 0.059041 0.020467
v -0.008700 0.058900 0.019731
v -0.008700 0.058900 -0.019601
v -0.008700 0.059041 -0.020337
v -0.008700 0.061031 -0.022421
v -0.017000 0.058900 -0.019601
v -0.008700 0.058900 -0.019601
v -0.017000 0.059041 -0.020337
v -0.008700 0.059041 -0.020337
v -0.017000 0.059041 -0.020337
v -0.008700 0.059041 -0.020337
v -0.017000 0.059443 -0.020970
v -0.008700 0.059443 -0.020970
v -0.017000 0.062400 -0.022585
v -0.017000 0.061825 -0.022585
v -0.014700 0.062400 -0.022585
v -0.008700 0.061825 -0.022585
v -0.014700 0.068900 -0.022585
v -0.008700 0.066900 -0.022585
v -0.007200 0.068900 -0.022585
v -0.007200 0.066900 -0.022585
v -0.014700 0.066425 -0.025435
v -0.014700 0.066288 -0.024922
v -0.014700 0.068900 -0.022585
v -0.014700 0.062400 -0.027038
v -0.014700 0.062400 -0.022585
v -0.014700 0.064512 -0.024922
v -0.014700 0.064375 -0.025435
v -0.014700 0.064512 -0.025948
v -0.014700 0.064641 -0.029423
v -0.014700 0.064888 -0.026323
v -0.014700 0.065042 -0.029683
v -0.014700 0.065400 -0.026460
v -0.014700 0.065518 -0.029727
v -0.014700 0.065913 -0.024547
v -0.014700 0.065400 -0.024410
v -0.014700 0.064888 -0.024547
v -0.014700 0.065960 -0.029545
v -0.014700 0.066267 -0.029179
v -0.014700 0.066954 -0.028218
v -0.014700 0.065913 -0.026323
v -0.014700 0.068343 -0.026829
v -0.014700 0.066288 -0.025948
v -0.014700 0.068755 -0.026212
v -0.014700 0.068900 -0.025485
v -0.014700 0.066267 0.029309
v -0.006700 0.066267 0.029309
v -0.014700 0.066954 0.028348
v -0.014700 0.066954 0.028348
v -0.006700 0.066267 0.029309
v -0.006700 0.066813 0.028497
v -0.014700 0.066954 0.028348
v -0.006700 0.066813 0.028497
v -0.005764 0.066954 0.028348
v -0.005764 0.066954 0.028348
v -0.006700 0.066813 0.028497
v -0.006700 0.066316 0.028339
v -0.003448 0.067004 0.027942
v -0.003700 0.067345 0.027957
v -0.005079 0.067071 0.028232
v -0.005079 0.067071 0.028232
v -0.005764 0.066954 0.028348
v -0.003448 0.067004 0.027942
v -0.003448 0.067004 0.027942
v -0.005764 0.066954 0.028348
v -0.003202 0.066602 0.027792
v -0.003448 0.067004 0.027942
v -0.003202 0.066602 0.027792
v -0.003134 0.066686 0.027816
v -0.005764 0.066954 0.028348
v -0.006700 0.066316 0.028339
v -0.003202 0.066602 0.027792
v -0.003202 0.066602 0.027792
v -0.006700 0.066316 0.028339
v -0.006700 0.065870 0.028018
v -0.003202 0.066602 0.027792
v -0.006700 0.065870 0.028018
v -0.003526 0.066266 0.027622
v -0.003526 0.066266 0.027622
v -0.003526 0.062643 0.024000
v -0.003452 0.062654 0.023988
v -0.003526 0.066266 0.027622
v -0.003452 0.062654 0.023988
v -0.003202 0.066602 0.027792
v -0.003202 0.066602 0.027792
v -0.003452 0.062654 0.023988
v -0.003077 0.062786 0.023856
v -0.003202 0.066602 0.027792
v -0.003077 0.062786 0.023856
v -0.003134 0.066686 0.027816
v -0.002799 0.063032 0.023611
v -0.002700 0.063339 0.023303
v -0.002700 0.066962 0.026926
v -0.002700 0.066962 0.026926
v -0.002753 0.066773 0.027189
v -0.002799 0.063032 0.023611
v -0.002799 0.063032 0.023611
v -0.002753 0.066773 0.027189
v -0.002799 0.066725 0.027303
v -0.002799 0.063032 0.023611
v -0.002799 0.066725 0.027303
v -0.003077 0.062786 0.023856
v -0.003077 0.062786 0.023856
v -0.002799 0.066725 0.027303
v -0.002963 0.066670 0.027591
v -0.003077 0.062786 0.023856
v -0.002963 0.066670 0.027591
v -0.003134 0.066686 0.027816
v -0.006700 0.061795 0.023535
v -0.003526 0.062354 0.023303
v -0.003513 0.062432 0.023679
v -0.006700 0.061870 0.023912
v -0.006700 0.061870 0.023912
v -0.003513 0.062432 0.023679
v -0.003526 0.062643 0.024000
v -0.006700 0.062083 0.024231
v -0.003526 0.062354 0.023303
v -0.003526 0.062354 -0.023173
v -0.003452 0.062370 0.023303
v -0.003452 0.062370 0.023303
v -0.003526 0.062354 -0.023173
v -0.003307 0.062420 -0.023173
v -0.003452 0.062370 0.023303
v -0.003307 0.062420 -0.023173
v -0.003077 0.062557 0.023303
v -0.003077 0.062557 0.023303
v -0.003307 0.062420 -0.023173
v -0.003103 0.062537 -0.023173
v -0.003077 0.062557 0.023303
v -0.003103 0.062537 -0.023173
v -0.002799 0.062904 0.023303
v -0.002799 0.062904 0.023303
v -0.003103 0.062537 -0.023173
v -0.002981 0.062644 -0.023173
v -0.002981 0.062644 -0.023173
v -0.002806 0.062890 -0.023173
v -0.002799 0.062904 0.023303
v -0.002799 0.062904 0.023303
v -0.002806 0.062890 -0.023173
v -0.002700 0.063339 -0.023173
v -0.002799 0.062904 0.023303
v -0.002700 0.063339 -0.023173
v -0.002700 0.063339 0.023303
v -0.006700 0.062083 -0.024101
v -0.003526 0.062643 -0.023870
v -0.003513 0.062432 -0.023549
v -0.006700 0.061870 -0.023782
v -0.006700 0.061870 -0.023782
v -0.003513 0.062432 -0.023549
v -0.003526 0.062354 -0.023173
v -0.006700 0.061795 -0.023405
v -0.002700 0.066962 -0.026796
v -0.002700 0.063339 -0.023173
v -0.002707 0.066885 -0.026883
v -0.002707 0.066885 -0.026883
v -0.002700 0.063339 -0.023173
v -0.002796 0.063037 -0.023476
v -0.002808 0.063020 -0.023493
v -0.003134 0.066686 -0.027686
v -0.002796 0.063037 -0.023476
v -0.002796 0.063037 -0.023476
v -0.003134 0.066686 -0.027686
v -0.002815 0.066714 -0.027207
v -0.002796 0.063037 -0.023476
v -0.002815 0.066714 -0.027207
v -0.002707 0.066885 -0.026883
v -0.003526 0.062643 -0.023870
v -0.003526 0.066266 -0.027492
v -0.003270 0.062701 -0.023812
v -0.003270 0.062701 -0.023812
v -0.003526 0.066266 -0.027492
v -0.003211 0.066591 -0.027659
v -0.003270 0.062701 -0.023812
v -0.003211 0.066591 -0.027659
v -0.003122 0.062762 -0.023750
v -0.003122 0.062762 -0.023750
v -0.003211 0.066591 -0.027659
v -0.003134 0.066686 -0.027686
v -0.003122 0.062762 -0.023750
v -0.003134 0.066686 -0.027686
v -0.003023 0.062819 -0.023694
v -0.003023 0.062819 -0.023694
v -0.003134 0.066686 -0.027686
v -0.002808 0.063020 -0.023493
v -0.004698 0.067139 -0.028033
v -0.003700 0.067345 -0.027827
v -0.003448 0.067004 -0.027812
v -0.003448 0.067004 -0.027812
v -0.003134 0.066686 -0.027686
v -0.003211 0.066591 -0.027659
v -0.006700 0.065870 -0.027888
v -0.006700 0.066316 -0.028209
v -0.003526 0.066266 -0.027492
v -0.003526 0.066266 -0.027492
v -0.006700 0.066316 -0.028209
v -0.003211 0.066591 -0.027659
v -0.003211 0.066591 -0.027659
v -0.006700 0.066316 -0.028209
v -0.003448 0.067004 -0.027812
v -0.003448 0.067004 -0.027812
v -0.006700 0.066316 -0.028209
v -0.006700 0.066806 -0.028366
v -0.003448 0.067004 -0.027812
v -0.006700 0.066806 -0.028366
v -0.004698 0.067139 -0.028033
v -0.006700 0.066267 -0.029179
v -0.014700 0.066267 -0.029179
v -0.006700 0.066954 -0.028218
v -0.014700 0.066954 -0.028218
v -0.008700 0.066425 0.025565
v -0.014700 0.066425 0.025565
v -0.008700 0.066288 0.025053
v -0.014700 0.066288 0.025053
v -0.008700 0.066288 0.025053
v -0.014700 0.066288 0.025053
v -0.008700 0.065913 0.024677
v -0.014700 0.065913 0.024677
v -0.008700 0.065913 0.024677
v -0.014700 0.065913 0.024677
v -0.008700 0.065400 0.024540
v -0.014700 0.065400 0.024540
v -0.008700 0.065400 0.024540
v -0.014700 0.065400 0.024540
v -0.008700 0.064888 0.024677
v -0.014700 0.064888 0.024677
v -0.008700 0.064888 0.024677
v -0.014700 0.064888 0.024677
v -0.008700 0.064512 0.025053
v -0.014700 0.064512 0.025053
v -0.008700 0.064512 0.025053
v -0.014700 0.064512 0.025053
v -0.008700 0.064375 0.025565
v -0.014700 0.064375 0.025565
v -0.014700 0.068900 0.022715
v -0.014700 0.068900 0.025615
v -0.007200 0.068900 0.022715
v -0.003700 0.068900 0.025615
v -0.007200 0.068900 -0.022585
v -0.003700 0.068900 -0.025485
v -0.014700 0.068900 -0.022585
v -0.014700 0.068900 -0.025485
v -0.005079 0.067071 0.028232
v -0.003700 0.067345 0.027957
v -0.003700 0.068343 0.026959
v -0.014700 0.068343 0.026959
v -0.014700 0.066954 0.028348
v -0.005764 0.066954 0.028348
v -0.017000 0.061825 0.022715
v -0.008700 0.061825 0.022715
v -0.017000 0.061031 0.022551
v -0.008700 0.061031 0.022551
v -0.017000 0.061031 0.022551
v -0.008700 0.061031 0.022551
v -0.017000 0.060368 0.022085
v -0.008700 0.060368 0.022085
v -0.007200 0.068900 0.022715
v -0.007200 0.068900 -0.022585
v -0.007200 0.066900 -0.022585
v -0.007200 0.064900 0.020715
v -0.007200 0.065168 0.021715
v -0.007200 0.065900 0.022447
v -0.007200 0.065900 -0.022317
v -0.007200 0.065168 -0.021585
v -0.007200 0.064900 -0.020585
v -0.007200 0.066900 0.022715
v -0.008700 0.059443 0.021100
v -0.017000 0.059443 0.021100
v -0.008700 0.060368 0.022085
v -0.017000 0.060368 0.022085
v -0.007200 0.064900 0.020715
v -0.008700 0.064900 0.020715
v -0.007200 0.065168 0.021715
v -0.008700 0.065168 0.021715
v -0.007200 0.065168 0.021715
v -0.008700 0.065168 0.021715
v -0.007200 0.065900 0.022447
v -0.008700 0.065900 0.022447
v -0.007200 0.065900 0.022447
v -0.008700 0.065900 0.022447
v -0.007200 0.066900 0.022715
v -0.008700 0.066900 0.022715
v -0.007200 0.064900 -0.020585
v -0.008700 0.064900 -0.020585
v -0.007200 0.064900 0.020715
v -0.008700 0.064900 0.020715
v -0.007200 0.066900 -0.022585
v -0.008700 0.066900 -0.022585
v -0.007200 0.065900 -0.022317
v -0.008700 0.065900 -0.022317
v -0.007200 0.065900 -0.022317
v -0.008700 0.065900 -0.022317
v -0.007200 0.065168 -0.021585
v -0.008700 0.065168 -0.021585
v -0.007200 0.065168 -0.021585
v -0.008700 0.065168 -0.021585
v -0.007200 0.064900 -0.020585
v -0.008700 0.064900 -0.020585
v -0.008700 0.060368 -0.021955
v -0.017000 0.060368 -0.021955
v -0.008700 0.059443 -0.020970
v -0.017000 0.059443 -0.020970
v -0.008700 0.061825 -0.022585
v -0.017000 0.061825 -0.022585
v -0.008700 0.061031 -0.022421
v -0.017000 0.061031 -0.022421
v -0.008700 0.061031 -0.022421
v -0.017000 0.061031 -0.022421
v -0.008700 0.060368 -0.021955
v -0.017000 0.060368 -0.021955
v -0.008700 0.066425 -0.025435
v -0.014700 0.066425 -0.025435
v -0.008700 0.066288 -0.025948
v -0.014700 0.066288 -0.025948
v -0.008700 0.066288 -0.025948
v -0.014700 0.066288 -0.025948
v -0.008700 0.065913 -0.026323
v -0.014700 0.065913 -0.026323
v -0.008700 0.065913 -0.026323
v -0.014700 0.065913 -0.026323
v -0.008700 0.065400 -0.026460
v -0.014700 0.065400 -0.026460
v -0.008700 0.065400 -0.026460
v -0.014700 0.065400 -0.026460
v -0.008700 0.064888 -0.026323
v -0.014700 0.064888 -0.026323
v -0.008700 0.064888 -0.026323
v -0.014700 0.064888 -0.026323
v -0.008700 0.064512 -0.025948
v -0.014700 0.064512 -0.025948
v -0.008700 0.064512 -0.025948
v -0.014700 0.064512 -0.025948
v -0.008700 0.064375 -0.025435
v -0.014700 0.064375 -0.025435
v -0.004698 0.067139 -0.028033
v -0.006700 0.066806 -0.028366
v -0.006700 0.066954 -0.028218
v -0.003700 0.067345 -0.027827
v -0.003700 0.068343 -0.026829
v -0.014700 0.068343 -0.026829
v -0.014700 0.066954 -0.028218
v -0.002700 0.067636 0.026252
v -0.003700 0.068343 0.026959
v -0.002700 0.066962 0.026926
v -0.003700 0.067345 0.027957
v -0.002753 0.066773 0.027189
v -0.002799 0.066725 0.027303
v -0.002963 0.066670 0.027591
v -0.003448 0.067004 0.027942
v -0.003134 0.066686 0.027816
v -0.002700 0.067636 0.026252
v -0.002700 0.066962 0.026926
v -0.002700 0.063339 0.023303
v -0.002700 0.067636 -0.026122
v -0.002700 0.067832 -0.025830
v -0.002700 0.067900 -0.025485
v -0.002700 0.067832 0.025960
v -0.002700 0.066962 -0.026796
v -0.002700 0.063339 -0.023173
v -0.002700 0.067900 0.025615
v -0.003452 0.062654 0.023988
v -0.003526 0.062643 0.024000
v -0.003513 0.062432 0.023679
v -0.003526 0.062354 0.023303
v -0.003452 0.062370 0.023303
v -0.003452 0.062444 0.023674
v -0.003452 0.062444 0.023674
v -0.003452 0.062370 0.023303
v -0.003077 0.062557 0.023303
v -0.003077 0.062616 0.023603
v -0.003077 0.062616 0.023603
v -0.003077 0.062557 0.023303
v -0.002799 0.062904 0.023303
v -0.002799 0.062937 0.023470
v -0.002799 0.062937 0.023470
v -0.002799 0.062904 0.023303
v -0.002700 0.063339 0.023303
v -0.002700 0.063339 0.023303
v -0.002799 0.063032 0.023611
v -0.002799 0.062937 0.023470
v -0.002799 0.062937 0.023470
v -0.002799 0.063032 0.023611
v -0.003077 0.062786 0.023856
v -0.003077 0.062616 0.023603
v -0.003077 0.062616 0.023603
v -0.003077 0.062786 0.023856
v -0.003452 0.062654 0.023988
v -0.003452 0.062444 0.023674
v -0.003452 0.062444 0.023674
v -0.003513 0.062432 0.023679
v -0.003513 0.062432 -0.023549
v -0.003263 0.062499 -0.023495
v -0.003526 0.062354 -0.023173
v -0.003526 0.062354 -0.023173
v -0.003263 0.062499 -0.023495
v -0.003307 0.062420 -0.023173
v -0.003307 0.062420 -0.023173
v -0.003263 0.062499 -0.023495
v -0.003103 0.062537 -0.023173
v -0.003103 0.062537 -0.023173
v -0.003263 0.062499 -0.023495
v -0.002975 0.062698 -0.023425
v -0.003103 0.062537 -0.023173
v -0.002975 0.062698 -0.023425
v -0.002981 0.062644 -0.023173
v -0.002808 0.063020 -0.023493
v -0.002796 0.063037 -0.023476
v -0.002783 0.062996 -0.023379
v -0.002783 0.062996 -0.023379
v -0.002796 0.063037 -0.023476
v -0.002700 0.063339 -0.023173
v -0.002783 0.062996 -0.023379
v -0.002700 0.063339 -0.023173
v -0.002806 0.062890 -0.023173
v -0.002806 0.062890 -0.023173
v -0.002981 0.062644 -0.023173
v -0.002783 0.062996 -0.023379
v -0.002783 0.062996 -0.023379
v -0.002981 0.062644 -0.023173
v -0.002975 0.062698 -0.023425
v -0.002783 0.062996 -0.023379
v -0.002975 0.062698 -0.023425
v -0.002808 0.063020 -0.023493
v -0.002808 0.063020 -0.023493
v -0.002975 0.062698 -0.023425
v -0.003023 0.062819 -0.023694
v -0.003023 0.062819 -0.023694
v -0.002975 0.062698 -0.023425
v -0.003122 0.062762 -0.023750
v -0.003122 0.062762 -0.023750
v -0.002975 0.062698 -0.023425
v -0.003263 0.062499 -0.023495
v -0.003122 0.062762 -0.023750
v -0.003263 0.062499 -0.023495
v -0.003270 0.062701 -0.023812
v -0.003270 0.062701 -0.023812
v -0.003263 0.062499 -0.023495
v -0.003513 0.062432 -0.023549
v -0.003270 0.062701 -0.023812
v -0.003513 0.062432 -0.023549
v -0.003526 0.062643 -0.023870
v -0.002815 0.066714 -0.027207
v -0.003134 0.066686 -0.027686
v -0.002707 0.066885 -0.026883
v -0.003448 0.067004 -0.027812
v -0.002700 0.066962 -0.026796
v -0.003700 0.067345 -0.027827
v -0.002700 0.067636 -0.026122
v -0.003700 0.068343 -0.026829
v -0.008084 0.065400 0.025565
v -0.008700 0.065913 0.024677
v -0.008700 0.065400 0.024540
v -0.008700 0.066288 0.025053
v -0.008700 0.065913 0.024677
v -0.008084 0.065400 0.025565
v -0.008700 0.066425 0.025565
v -0.008700 0.066288 0.025053
v -0.008084 0.065400 0.025565
v -0.008084 0.065400 0.025565
v -0.008700 0.064512 0.025053
v -0.008700 0.064375 0.025565
v -0.008700 0.064888 0.024677
v -0.008700 0.064512 0.025053
v -0.008084 0.065400 0.025565
v -0.008700 0.065400 0.024540
v -0.008700 0.064888 0.024677
v -0.008084 0.065400 0.025565
v -0.003700 0.068900 0.025615
v -0.014700 0.068900 0.025615
v -0.014700 0.068755 0.026342
v -0.003700 0.068755 0.026342
v -0.003700 0.068755 0.026342
v -0.014700 0.068755 0.026342
v -0.014700 0.068343 0.026959
v -0.003700 0.068343 0.026959
v -0.003700 0.068900 -0.025485
v -0.003700 0.068900 0.025615
v -0.002700 0.067900 -0.025485
v -0.002700 0.067900 0.025615
v -0.003700 0.068343 -0.026829
v -0.014700 0.068343 -0.026829
v -0.014700 0.068755 -0.026212
v -0.003700 0.068755 -0.026212
v -0.003700 0.068755 -0.026212
v -0.014700 0.068755 -0.026212
v -0.014700 0.068900 -0.025485
v -0.003700 0.068900 -0.025485
v -0.008084 0.065400 -0.025435
v -0.008700 0.065913 -0.026323
v -0.008700 0.065400 -0.026460
v -0.008700 0.066288 -0.025948
v -0.008700 0.065913 -0.026323
v -0.008084 0.065400 -0.025435
v -0.008700 0.066425 -0.025435
v -0.008700 0.066288 -0.025948
v -0.008084 0.065400 -0.025435
v -0.008084 0.065400 -0.025435
v -0.008700 0.064512 -0.025948
v -0.008700 0.064375 -0.025435
v -0.008700 0.064888 -0.026323
v -0.008700 0.064512 -0.025948
v -0.008084 0.065400 -0.025435
v -0.008700 0.065400 -0.026460
v -0.008700 0.064888 -0.026323
v -0.008084 0.065400 -0.025435
v -0.002700 0.067900 0.025615
v -0.003700 0.068900 0.025615
v -0.003700 0.068755 0.026342
v -0.002700 0.067832 0.025960
v -0.002700 0.067832 0.025960
v -0.003700 0.068755 0.026342
v -0.003700 0.068343 0.026959
v -0.002700 0.067636 0.026252
v -0.002700 0.067636 -0.026122
v -0.003700 0.068343 -0.026829
v -0.003700 0.068755 -0.026212
v -0.002700 0.067832 -0.025830
v -0.002700 0.067832 -0.025830
v -0.003700 0.068755 -0.026212
v -0.003700 0.068900 -0.025485
v -0.002700 0.067900 -0.025485
v -0.008700 -0.064375 -0.025435
v -0.014700 -0.064375 -0.025435
v -0.008700 -0.064512 -0.025948
v -0.014700 -0.064512 -0.025948
v -0.008700 -0.064512 -0.025948
v -0.014700 -0.064512 -0.025948
v -0.008700 -0.064888 -0.026323
v -0.014700 -0.064888 -0.026323
v -0.008700 -0.064888 -0.026323
v -0.014700 -0.064888 -0.026323
v -0.008700 -0.065400 -0.026460
v -0.014700 -0.065400 -0.026460
v -0.008700 -0.065400 -0.026460
v -0.014700 -0.065400 -0.026460
v -0.008700 -0.065913 -0.026323
v -0.014700 -0.065913 -0.026323
v -0.008700 -0.065913 -0.026323
v -0.014700 -0.065913 -0.026323
v -0.008700 -0.066288 -0.025948
v -0.014700 -0.066288 -0.025948
v -0.008700 -0.066288 -0.025948
v -0.014700 -0.066288 -0.025948
v -0.008700 -0.066425 -0.025435
v -0.014700 -0.066425 -0.025435
v -0.008700 -0.064375 0.025565
v -0.014700 -0.064375 0.025565
v -0.008700 -0.064512 0.025053
v -0.014700 -0.064512 0.025053
v -0.008700 -0.064512 0.025053
v -0.014700 -0.064512 0.025053
v -0.008700 -0.064888 0.024677
v -0.014700 -0.064888 0.024677
v -0.008700 -0.064888 0.024677
v -0.014700 -0.064888 0.024677
v -0.008700 -0.065400 0.024540
v -0.014700 -0.065400 0.024540
v -0.008700 -0.065400 0.024540
v -0.014700 -0.065400 0.024540
v -0.008700 -0.065913 0.024677
v -0.014700 -0.065913 0.024677
v -0.008700 -0.065913 0.024677
v -0.014700 -0.065913 0.024677
v -0.008700 -0.066288 0.025053
v -0.014700 -0.066288 0.025053
v -0.008700 -0.066288 0.025053
v -0.014700 -0.066288 0.025053
v -0.008700 -0.066425 0.025565
v -0.014700 -0.066425 0.025565
v -0.008084 -0.065400 -0.025435
v -0.008700 -0.064888 -0.026323
v -0.008700 -0.065400 -0.026460
v -0.008700 -0.064512 -0.025948
v -0.008700 -0.064888 -0.026323
v -0.008084 -0.065400 -0.025435
v -0.008700 -0.064375 -0.025435
v -0.008700 -0.064512 -0.025948
v -0.008084 -0.065400 -0.025435
v -0.008084 -0.065400 -0.025435
v -0.008700 -0.066288 -0.025948
v -0.008700 -0.066425 -0.025435
v -0.008700 -0.065913 -0.026323
v -0.008700 -0.066288 -0.025948
v -0.008084 -0.065400 -0.025435
v -0.008700 -0.065400 -0.026460
v -0.008700 -0.065913 -0.026323
v -0.008084 -0.065400 -0.025435
v -0.008084 -0.065400 0.025565
v -0.008700 -0.064888 0.024677
v -0.008700 -0.065400 0.024540
v -0.008700 -0.064512 0.025053
v -0.008700 -0.064888 0.024677
v -0.008084 -0.065400 0.025565
v -0.008700 -0.064375 0.025565
v -0.008700 -0.064512 0.025053
v -0.008084 -0.065400 0.025565
v -0.008084 -0.065400 0.025565
v -0.008700 -0.066288 0.025053
v -0.008700 -0.066425 0.025565
v -0.008700 -0.065913 0.024677
v -0.008700 -0.066288 0.025053
v -0.008084 -0.065400 0.025565
v -0.008700 -0.065400 0.024540
v -0.008700 -0.065913 0.024677
v -0.008084 -0.065400 0.025565
v -0.017000 -0.056900 0.007565
v -0.017000 -0.056900 0.020523
v -0.011200 -0.056900 0.007565
v -0.006700 -0.056900 0.020523
v -0.011200 -0.056900 -0.007435
v -0.006700 -0.056900 -0.020393
v -0.017000 -0.056900 -0.007435
v -0.017000 -0.056900 -0.020393
v -0.017000 -0.062400 -0.022585
v -0.017000 -0.061825 -0.022585
v -0.017000 -0.062400 -0.027038
v -0.017000 -0.061031 -0.022421
v -0.017000 -0.057443 -0.021762
v -0.017000 -0.058900 -0.007435
v -0.017000 -0.056900 -0.007435
v -0.017000 -0.058900 -0.019601
v -0.017000 -0.056900 -0.020393
v -0.017000 -0.059041 -0.020337
v -0.017000 -0.057041 -0.021129
v -0.017000 -0.059443 -0.020970
v -0.017000 -0.060368 -0.021955
v -0.011200 -0.056900 -0.007435
v -0.017000 -0.056900 -0.007435
v -0.011200 -0.058900 -0.007435
v -0.017000 -0.058900 -0.007435
v -0.011200 -0.056900 0.007565
v -0.011200 -0.056900 -0.007435
v -0.011200 -0.058900 0.007565
v -0.011200 -0.058900 -0.007435
v -0.011200 -0.058900 0.007565
v -0.017000 -0.058900 0.007565
v -0.011200 -0.056900 0.007565
v -0.017000 -0.056900 0.007565
v -0.017000 -0.061825 0.022715
v -0.017000 -0.062400 0.022715
v -0.017000 -0.062400 0.027168
v -0.017000 -0.057443 0.021892
v -0.017000 -0.060368 0.022085
v -0.017000 -0.061031 0.022551
v -0.017000 -0.056900 0.007565
v -0.017000 -0.058900 0.007565
v -0.017000 -0.056900 0.020523
v -0.017000 -0.058900 0.019731
v -0.017000 -0.057041 0.021259
v -0.017000 -0.059041 0.020467
v -0.017000 -0.059443 0.021100
v -0.006700 -0.056900 0.020523
v -0.017000 -0.056900 0.020523
v -0.017000 -0.057041 0.021259
v -0.006700 -0.057041 0.021259
v -0.006700 -0.057041 0.021259
v -0.017000 -0.057041 0.021259
v -0.017000 -0.057443 0.021892
v -0.006700 -0.057443 0.021892
v -0.006700 -0.066954 0.028348
v -0.006700 -0.066806 0.028496
v -0.006700 -0.066267 0.029309
v -0.006700 -0.066316 0.028339
v -0.006700 -0.065960 0.029675
v -0.006700 -0.065870 0.028018
v -0.006700 -0.062083 0.024231
v -0.006700 -0.057443 0.021892
v -0.006700 -0.061870 0.023912
v -0.006700 -0.061795 0.023535
v -0.006700 -0.066316 -0.028209
v -0.006700 -0.066813 -0.028367
v -0.006700 -0.066267 -0.029179
v -0.006700 -0.064641 0.029553
v -0.006700 -0.065042 0.029813
v -0.006700 -0.065518 0.029857
v -0.006700 -0.061795 -0.023405
v -0.006700 -0.061870 -0.023782
v -0.006700 -0.057443 -0.021762
v -0.006700 -0.062083 -0.024101
v -0.006700 -0.064641 -0.029423
v -0.006700 -0.065870 -0.027888
v -0.006700 -0.065042 -0.029683
v -0.006700 -0.065518 -0.029727
v -0.006700 -0.065960 -0.029545
v -0.006700 -0.057041 0.021259
v -0.006700 -0.056900 0.020523
v -0.006700 -0.056900 -0.020393
v -0.006700 -0.057041 -0.021129
v -0.006700 -0.057443 -0.021762
v -0.017000 -0.057443 -0.021762
v -0.017000 -0.057041 -0.021129
v -0.006700 -0.057041 -0.021129
v -0.006700 -0.057041 -0.021129
v -0.017000 -0.057041 -0.021129
v -0.017000 -0.056900 -0.020393
v -0.006700 -0.056900 -0.020393
v -0.017000 -0.062400 -0.027038
v -0.017000 -0.057443 -0.021762
v -0.014700 -0.062400 -0.027038
v -0.006700 -0.057443 -0.021762
v -0.014700 -0.064641 -0.029423
v -0.006700 -0.064641 -0.029423
v -0.014700 -0.062400 -0.022585
v -0.017000 -0.062400 -0.022585
v -0.014700 -0.062400 -0.027038
v -0.017000 -0.062400 -0.027038
v -0.017000 -0.058900 -0.007435
v -0.017000 -0.058900 -0.019601
v -0.011200 -0.058900 -0.007435
v -0.008700 -0.058900 -0.019601
v -0.011200 -0.058900 0.007565
v -0.008700 -0.058900 0.019731
v -0.017000 -0.058900 0.007565
v -0.017000 -0.058900 0.019731
v -0.014700 -0.062400 0.027168
v -0.017000 -0.062400 0.027168
v -0.014700 -0.062400 0.022715
v -0.017000 -0.062400 0.022715
v -0.014700 -0.064641 0.029553
v -0.006700 -0.064641 0.029553
v -0.014700 -0.062400 0.027168
v -0.006700 -0.057443 0.021892
v -0.017000 -0.062400 0.027168
v -0.017000 -0.057443 0.021892
v -0.006700 -0.066267 -0.029179
v -0.014700 -0.066267 -0.029179
v -0.014700 -0.065960 -0.029545
v -0.006700 -0.065960 -0.029545
v -0.006700 -0.065960 -0.029545
v -0.014700 -0.065960 -0.029545
v -0.014700 -0.065518 -0.029727
v -0.006700 -0.065518 -0.029727
v -0.006700 -0.065518 -0.029727
v -0.014700 -0.065518 -0.029727
v -0.014700 -0.065042 -0.029683
v -0.006700 -0.065042 -0.029683
v -0.006700 -0.065042 -0.029683
v -0.014700 -0.065042 -0.029683
v -0.014700 -0.064641 -0.029423
v -0.006700 -0.064641 -0.029423
v -0.006700 -0.065870 -0.027888
v -0.006700 -0.062083 -0.024101
v -0.003526 -0.066266 -0.027492
v -0.003526 -0.062643 -0.023870
v -0.003526 -0.062354 -0.023173
v -0.006700 -0.061795 -0.023405
v -0.003526 -0.062354 0.023303
v -0.006700 -0.061795 0.023535
v -0.006700 -0.062083 0.024231
v -0.006700 -0.065870 0.028018
v -0.003526 -0.062643 0.024000
v -0.003526 -0.066266 0.027622
v -0.006700 -0.064641 0.029553
v -0.014700 -0.064641 0.029553
v -0.014700 -0.065042 0.029813
v -0.006700 -0.065042 0.029813
v -0.006700 -0.065042 0.029813
v -0.014700 -0.065042 0.029813
v -0.014700 -0.065518 0.029857
v -0.006700 -0.065518 0.029857
v -0.006700 -0.065518 0.029857
v -0.014700 -0.065518 0.029857
v -0.014700 -0.065960 0.029675
v -0.006700 -0.065960 0.029675
v -0.006700 -0.065960 0.029675
v -0.014700 -0.065960 0.029675
v -0.014700 -0.066267 0.029309
v -0.006700 -0.066267 0.029309
v -0.014700 -0.068900 -0.022585
v -0.014700 -0.066288 -0.024922
v -0.014700 -0.068900 -0.025485
v -0.014700 -0.066425 -0.025435
v -0.014700 -0.068755 -0.026212
v -0.014700 -0.066288 -0.025948
v -0.014700 -0.068343 -0.026829
v -0.014700 -0.066954 -0.028218
v -0.014700 -0.065913 -0.026323
v -0.014700 -0.066267 -0.029179
v -0.014700 -0.065400 -0.026460
v -0.014700 -0.065960 -0.029545
v -0.014700 -0.062400 -0.027038
v -0.014700 -0.064641 -0.029423
v -0.014700 -0.064888 -0.026323
v -0.014700 -0.065042 -0.029683
v -0.014700 -0.065518 -0.029727
v -0.014700 -0.064512 -0.025948
v -0.014700 -0.064375 -0.025435
v -0.014700 -0.062400 -0.022585
v -0.014700 -0.064512 -0.024922
v -0.014700 -0.064888 -0.024547
v -0.014700 -0.065400 -0.024410
v -0.014700 -0.065913 -0.024547
v -0.017000 -0.061825 -0.022585
v -0.017000 -0.062400 -0.022585
v -0.014700 -0.062400 -0.022585
v -0.007200 -0.068900 -0.022585
v -0.007200 -0.066900 -0.022585
v -0.014700 -0.068900 -0.022585
v -0.008700 -0.066900 -0.022585
v -0.008700 -0.061825 -0.022585
v -0.017000 -0.059443 -0.020970
v -0.008700 -0.059443 -0.020970
v -0.017000 -0.059041 -0.020337
v -0.008700 -0.059041 -0.020337
v -0.017000 -0.059041 -0.020337
v -0.008700 -0.059041 -0.020337
v -0.017000 -0.058900 -0.019601
v -0.008700 -0.058900 -0.019601
v -0.008700 -0.060368 0.022085
v -0.008700 -0.059443 0.021100
v -0.008700 -0.064900 0.020715
v -0.008700 -0.066900 0.022715
v -0.008700 -0.061825 0.022715
v -0.008700 -0.065900 0.022447
v -0.008700 -0.065168 0.021715
v -0.008700 -0.066900 -0.022585
v -0.008700 -0.065900 -0.022317
v -0.008700 -0.061825 -0.022585
v -0.008700 -0.065168 -0.021585
v -0.008700 -0.061031 -0.022421
v -0.008700 -0.064900 -0.020585
v -0.008700 -0.060368 -0.021955
v -0.008700 -0.059443 -0.020970
v -0.008700 -0.059041 -0.020337
v -0.008700 -0.058900 -0.019601
v -0.008700 -0.058900 0.019731
v -0.008700 -0.059041 0.020467
v -0.008700 -0.061031 0.022551
v -0.017000 -0.058900 0.019731
v -0.008700 -0.058900 0.019731
v -0.017000 -0.059041 0.020467
v -0.008700 -0.059041 0.020467
v -0.017000 -0.059041 0.020467
v -0.008700 -0.059041 0.020467
v -0.017000 -0.059443 0.021100
v -0.008700 -0.059443 0.021100
v -0.017000 -0.062400 0.022715
v -0.017000 -0.061825 0.022715
v -0.014700 -0.062400 0.022715
v -0.008700 -0.061825 0.022715
v -0.014700 -0.068900 0.022715
v -0.008700 -0.066900 0.022715
v -0.007200 -0.068900 0.022715
v -0.007200 -0.066900 0.022715
v -0.014700 -0.066425 0.025565
v -0.014700 -0.066288 0.025053
v -0.014700 -0.068900 0.022715
v -0.014700 -0.062400 0.027168
v -0.014700 -0.064512 0.026077
v -0.014700 -0.064641 0.029553
v -0.014700 -0.064888 0.026453
v -0.014700 -0.065042 0.029813
v -0.014700 -0.065400 0.026590
v -0.014700 -0.065518 0.029857
v -0.014700 -0.065913 0.024677
v -0.014700 -0.065400 0.024540
v -0.014700 -0.062400 0.022715
v -0.014700 -0.064888 0.024677
v -0.014700 -0.064512 0.025053
v -0.014700 -0.064375 0.025565
v -0.014700 -0.065960 0.029675
v -0.014700 -0.066267 0.029309
v -0.014700 -0.066954 0.028348
v -0.014700 -0.065913 0.026453
v -0.014700 -0.068343 0.026959
v -0.014700 -0.066288 0.026077
v -0.014700 -0.068755 0.026342
v -0.014700 -0.068900 0.025615
v -0.014700 -0.066267 -0.029179
v -0.006700 -0.066267 -0.029179
v -0.014700 -0.066954 -0.028218
v -0.014700 -0.066954 -0.028218
v -0.006700 -0.066267 -0.029179
v -0.006700 -0.066813 -0.028367
v -0.014700 -0.066954 -0.028218
v -0.006700 -0.066813 -0.028367
v -0.005764 -0.066954 -0.028218
v -0.005764 -0.066954 -0.028218
v -0.006700 -0.066813 -0.028367
v -0.006700 -0.066316 -0.028209
v -0.003448 -0.067004 -0.027812
v -0.003700 -0.067345 -0.027827
v -0.005079 -0.067071 -0.028102
v -0.005079 -0.067071 -0.028102
v -0.005764 -0.066954 -0.028218
v -0.003448 -0.067004 -0.027812
v -0.003448 -0.067004 -0.027812
v -0.005764 -0.066954 -0.028218
v -0.003202 -0.066602 -0.027662
v -0.003448 -0.067004 -0.027812
v -0.003202 -0.066602 -0.027662
v -0.003134 -0.066686 -0.027686
v -0.005764 -0.066954 -0.028218
v -0.006700 -0.066316 -0.028209
v -0.003202 -0.066602 -0.027662
v -0.003202 -0.066602 -0.027662
v -0.006700 -0.066316 -0.028209
v -0.006700 -0.065870 -0.027888
v -0.003202 -0.066602 -0.027662
v -0.006700 -0.065870 -0.027888
v -0.003526 -0.066266 -0.027492
v -0.003526 -0.066266 -0.027492
v -0.003526 -0.062643 -0.023870
v -0.003452 -0.062654 -0.023858
v -0.003526 -0.066266 -0.027492
v -0.003452 -0.062654 -0.023858
v -0.003202 -0.066602 -0.027662
v -0.003202 -0.066602 -0.027662
v -0.003452 -0.062654 -0.023858
v -0.003077 -0.062786 -0.023726
v -0.003202 -0.066602 -0.027662
v -0.003077 -0.062786 -0.023726
v -0.003134 -0.066686 -0.027686
v -0.002799 -0.063032 -0.023481
v -0.002700 -0.063339 -0.023173
v -0.002700 -0.066962 -0.026796
v -0.002700 -0.066962 -0.026796
v -0.002753 -0.066773 -0.027059
v -0.002799 -0.063032 -0.023481
v -0.002799 -0.063032 -0.023481
v -0.002753 -0.066773 -0.027059
v -0.002799 -0.066725 -0.027173
v -0.002799 -0.063032 -0.023481
v -0.002799 -0.066725 -0.027173
v -0.003077 -0.062786 -0.023726
v -0.003077 -0.062786 -0.023726
v -0.002799 -0.066725 -0.027173
v -0.002963 -0.066670 -0.027461
v -0.003077 -0.062786 -0.023726
v -0.002963 -0.066670 -0.027461
v -0.003134 -0.066686 -0.027686
v -0.006700 -0.061795 -0.023405
v -0.003526 -0.062354 -0.023173
v -0.003513 -0.062432 -0.023549
v -0.006700 -0.061870 -0.023782
v -0.006700 -0.061870 -0.023782
v -0.003513 -0.062432 -0.023549
v -0.003526 -0.062643 -0.023870
v -0.006700 -0.062083 -0.024101
v -0.003526 -0.062354 -0.023173
v -0.003526 -0.062354 0.023303
v -0.003452 -0.062370 -0.023173
v -0.003452 -0.062370 -0.023173
v -0.003526 -0.062354 0.023303
v -0.003307 -0.062420 0.023303
v -0.003452 -0.062370 -0.023173
v -0.003307 -0.062420 0.023303
v -0.003077 -0.062557 -0.023173
v -0.003077 -0.062557 -0.023173
v -0.003307 -0.062420 0.023303
v -0.003103 -0.062537 0.023303
v -0.003077 -0.062557 -0.023173
v -0.003103 -0.062537 0.023303
v -0.002799 -0.062904 -0.023173
v -0.002799 -0.062904 -0.023173
v -0.003103 -0.062537 0.023303
v -0.002981 -0.062644 0.023303
v -0.002981 -0.062644 0.023303
v -0.002806 -0.062890 0.023303
v -0.002799 -0.062904 -0.023173
v -0.002799 -0.062904 -0.023173
v -0.002806 -0.062890 0.023303
v -0.002700 -0.063339 0.023303
v -0.002799 -0.062904 -0.023173
v -0.002700 -0.063339 0.023303
v -0.002700 -0.063339 -0.023173
v -0.006700 -0.062083 0.024231
v -0.003526 -0.062643 0.024000
v -0.003513 -0.062432 0.023679
v -0.006700 -0.061870 0.023912
v -0.006700 -0.061870 0.023912
v -0.003513 -0.062432 0.023679
v -0.003526 -0.062354 0.023303
v -0.006700 -0.061795 0.023535
v -0.002700 -0.066962 0.026926
v -0.002700 -0.063339 0.023303
v -0.002707 -0.066885 0.027013
v -0.002707 -0.066885 0.027013
v -0.002700 -0.063339 0.023303
v -0.002796 -0.063037 0.023606
v -0.002808 -0.063020 0.023623
v -0.003134 -0.066686 0.027816
v -0.002796 -0.063037 0.023606
v -0.002796 -0.063037 0.023606
v -0.003134 -0.066686 0.027816
v -0.002815 -0.066714 0.027337
v -0.002796 -0.063037 0.023606
v -0.002815 -0.066714 0.027337
v -0.002707 -0.066885 0.027013
v -0.003526 -0.062643 0.024000
v -0.003526 -0.066266 0.027622
v -0.003270 -0.062701 0.023942
v -0.003270 -0.062701 0.023942
v -0.003526 -0.066266 0.027622
v -0.003211 -0.066591 0.027789
v -0.003270 -0.062701 0.023942
v -0.003211 -0.066591 0.027789
v -0.003122 -0.062762 0.023880
v -0.003122 -0.062762 0.023880
v -0.003211 -0.066591 0.027789
v -0.003134 -0.066686 0.027816
v -0.003122 -0.062762 0.023880
v -0.003134 -0.066686 0.027816
v -0.003023 -0.062819 0.023824
v -0.003023 -0.062819 0.023824
v -0.003134 -0.066686 0.027816
v -0.002808 -0.063020 0.023623
v -0.004698 -0.067139 0.028163
v -0.003700 -0.067345 0.027957
v -0.003448 -0.067004 0.027942
v -0.003448 -0.067004 0.027942
v -0.003134 -0.066686 0.027816
v -0.003211 -0.066591 0.027789
v -0.006700 -0.065870 0.028018
v -0.006700 -0.066316 0.028339
v -0.003526 -0.066266 0.027622
v -0.003526 -0.066266 0.027622
v -0.006700 -0.066316 0.028339
v -0.003211 -0.066591 0.027789
v -0.003211 -0.066591 0.027789
v -0.006700 -0.066316 0.028339
v -0.003448 -0.067004 0.027942
v -0.003448 -0.067004 0.027942
v -0.006700 -0.066316 0.028339
v -0.006700 -0.066806 0.028496
v -0.003448 -0.067004 0.027942
v -0.006700 -0.066806 0.028496
v -0.004698 -0.067139 0.028163
v -0.006700 -0.066267 0.029309
v -0.014700 -0.066267 0.029309
v -0.006700 -0.066954 0.028348
v -0.014700 -0.066954 0.028348
v -0.008700 -0.066425 -0.025435
v -0.014700 -0.066425 -0.025435
v -0.008700 -0.066288 -0.024922
v -0.014700 -0.066288 -0.024922
v -0.008700 -0.066288 -0.024922
v -0.014700 -0.066288 -0.024922
v -0.008700 -0.065913 -0.024547
v -0.014700 -0.065913 -0.024547
v -0.008700 -0.065913 -0.024547
v -0.014700 -0.065913 -0.024547
v -0.008700 -0.065400 -0.024410
v -0.014700 -0.065400 -0.024410
v -0.008700 -0.065400 -0.024410
v -0.014700 -0.065400 -0.024410
v -0.008700 -0.064888 -0.024547
v -0.014700 -0.064888 -0.024547
v -0.008700 -0.064888 -0.024547
v -0.014700 -0.064888 -0.024547
v -0.008700 -0.064512 -0.024922
v -0.014700 -0.064512 -0.024922
v -0.008700 -0.064512 -0.024922
v -0.014700 -0.064512 -0.024922
v -0.008700 -0.064375 -0.025435
v -0.014700 -0.064375 -0.025435
v -0.014700 -0.068900 -0.022585
v -0.014700 -0.068900 -0.025485
v -0.007200 -0.068900 -0.022585
v -0.003700 -0.068900 -0.025485
v -0.007200 -0.068900 0.022715
v -0.003700 -0.068900 0.025615
v -0.014700 -0.068900 0.022715
v -0.014700 -0.068900 0.025615
v -0.005079 -0.067071 -0.028102
v -0.003700 -0.067345 -0.027827
v -0.003700 -0.068343 -0.026829
v -0.014700 -0.068343 -0.026829
v -0.014700 -0.066954 -0.028218
v -0.005764 -0.066954 -0.028218
v -0.017000 -0.061825 -0.022585
v -0.008700 -0.061825 -0.022585
v -0.017000 -0.061031 -0.022421
v -0.008700 -0.061031 -0.022421
v -0.017000 -0.061031 -0.022421
v -0.008700 -0.061031 -0.022421
v -0.017000 -0.060368 -0.021955
v -0.008700 -0.060368 -0.021955
v -0.007200 -0.065900 0.022447
v -0.007200 -0.065168 0.021715
v -0.007200 -0.066900 0.022715
v -0.007200 -0.064900 0.020715
v -0.007200 -0.064900 -0.020585
v -0.007200 -0.065168 -0.021585
v -0.007200 -0.065900 -0.022317
v -0.007200 -0.066900 -0.022585
v -0.007200 -0.068900 -0.022585
v -0.007200 -0.068900 0.022715
v -0.008700 -0.059443 -0.020970
v -0.017000 -0.059443 -0.020970
v -0.008700 -0.060368 -0.021955
v -0.017000 -0.060368 -0.021955
v -0.007200 -0.064900 -0.020585
v -0.008700 -0.064900 -0.020585
v -0.007200 -0.065168 -0.021585
v -0.008700 -0.065168 -0.021585
v -0.007200 -0.065168 -0.021585
v -0.008700 -0.065168 -0.021585
v -0.007200 -0.065900 -0.022317
v -0.008700 -0.065900 -0.022317
v -0.007200 -0.065900 -0.022317
v -0.008700 -0.065900 -0.022317
v -0.007200 -0.066900 -0.022585
v -0.008700 -0.066900 -0.022585
v -0.007200 -0.064900 0.020715
v -0.008700 -0.064900 0.020715
v -0.007200 -0.064900 -0.020585
v -0.008700 -0.064900 -0.020585
v -0.007200 -0.066900 0.022715
v -0.008700 -0.066900 0.022715
v -0.007200 -0.065900 0.022447
v -0.008700 -0.065900 0.022447
v -0.007200 -0.065900 0.022447
v -0.008700 -0.065900 0.022447
v -0.007200 -0.065168 0.021715
v -0.008700 -0.065168 0.021715
v -0.007200 -0.065168 0.021715
v -0.008700 -0.065168 0.021715
v -0.007200 -0.064900 0.020715
v -0.008700 -0.064900 0.020715
v -0.008700 -0.060368 0.022085
v -0.017000 -0.060368 0.022085
v -0.008700 -0.059443 0.021100
v -0.017000 -0.059443 0.021100
v -0.008700 -0.061825 0.022715
v -0.017000 -0.061825 0.022715
v -0.008700 -0.061031 0.022551
v -0.017000 -0.061031 0.022551
v -0.008700 -0.061031 0.022551
v -0.017000 -0.061031 0.022551
v -0.008700 -0.060368 0.022085
v -0.017000 -0.060368 0.022085
v -0.008700 -0.066425 0.025565
v -0.014700 -0.066425 0.025565
v -0.008700 -0.066288 0.026077
v -0.014700 -0.066288 0.026077
v -0.008700 -0.066288 0.026077
v -0.014700 -0.066288 0.026077
v -0.008700 -0.065913 0.026453
v -0.014700 -0.065913 0.026453
v -0.008700 -0.065913 0.026453
v -0.014700 -0.065913 0.026453
v -0.008700 -0.065400 0.026590
v -0.014700 -0.065400 0.026590
v -0.008700 -0.065400 0.026590
v -0.014700 -0.065400 0.026590
v -0.008700 -0.064888 0.026453
v -0.014700 -0.064888 0.026453
v -0.008700 -0.064888 0.026453
v -0.014700 -0.064888 0.026453
v -0.008700 -0.064512 0.026077
v -0.014700 -0.064512 0.026077
v -0.008700 -0.064512 0.026077
v -0.014700 -0.064512 0.026077
v -0.008700 -0.064375 0.025565
v -0.014700 -0.064375 0.025565
v -0.004698 -0.067139 0.028163
v -0.006700 -0.066806 0.028496
v -0.006700 -0.066954 0.028348
v -0.003700 -0.067345 0.027957
v -0.003700 -0.068343 0.026959
v -0.014700 -0.068343 0.026959
v -0.014700 -0.066954 0.028348
v -0.002700 -0.067636 -0.026122
v -0.003700 -0.068343 -0.026829
v -0.002700 -0.066962 -0.026796
v -0.003700 -0.067345 -0.027827
v -0.002753 -0.066773 -0.027059
v -0.002799 -0.066725 -0.027173
v -0.002963 -0.066670 -0.027461
v -0.003448 -0.067004 -0.027812
v -0.003134 -0.066686 -0.027686
v -0.002700 -0.067636 -0.026122
v -0.002700 -0.066962 -0.026796
v -0.002700 -0.063339 -0.023173
v -0.002700 -0.067636 0.026252
v -0.002700 -0.067832 0.025960
v -0.002700 -0.067900 0.025615
v -0.002700 -0.067832 -0.025830
v -0.002700 -0.066962 0.026926
v -0.002700 -0.063339 0.023303
v -0.002700 -0.067900 -0.025485
v -0.003452 -0.062654 -0.023858
v -0.003526 -0.062643 -0.023870
v -0.003513 -0.062432 -0.023549
v -0.003526 -0.062354 -0.023173
v -0.003452 -0.062370 -0.023173
v -0.003452 -0.062444 -0.023544
v -0.003452 -0.062444 -0.023544
v -0.003452 -0.062370 -0.023173
v -0.003077 -0.062557 -0.023173
v -0.003077 -0.062616 -0.023473
v -0.003077 -0.062616 -0.023473
v -0.003077 -0.062557 -0.023173
v -0.002799 -0.062904 -0.023173
v -0.002799 -0.062937 -0.023340
v -0.002799 -0.062937 -0.023340
v -0.002799 -0.062904 -0.023173
v -0.002700 -0.063339 -0.023173
v -0.002700 -0.063339 -0.023173
v -0.002799 -0.063032 -0.023481
v -0.002799 -0.062937 -0.023340
v -0.002799 -0.062937 -0.023340
v -0.002799 -0.063032 -0.023481
v -0.003077 -0.062786 -0.023726
v -0.003077 -0.062616 -0.023473
v -0.003077 -0.062616 -0.023473
v -0.003077 -0.062786 -0.023726
v -0.003452 -0.062654 -0.023858
v -0.003452 -0.062444 -0.023544
v -0.003452 -0.062444 -0.023544
v -0.003513 -0.062432 -0.023549
v -0.003513 -0.062432 0.023679
v -0.003263 -0.062499 0.023625
v -0.003526 -0.062354 0.023303
v -0.003526 -0.062354 0.023303
v -0.003263 -0.062499 0.023625
v -0.003307 -0.062420 0.023303
v -0.003307 -0.062420 0.023303
v -0.003263 -0.062499 0.023625
v -0.003103 -0.062537 0.023303
v -0.003103 -0.062537 0.023303
v -0.003263 -0.062499 0.023625
v -0.002975 -0.062698 0.023555
v -0.003103 -0.062537 0.023303
v -0.002975 -0.062698 0.023555
v -0.002981 -0.062644 0.023303
v -0.002808 -0.063020 0.023623
v -0.002796 -0.063037 0.023606
v -0.002783 -0.062996 0.023509
v -0.002783 -0.062996 0.023509
v -0.002796 -0.063037 0.023606
v -0.002700 -0.063339 0.023303
v -0.002783 -0.062996 0.023509
v -0.002700 -0.063339 0.023303
v -0.002806 -0.062890 0.023303
v -0.002806 -0.062890 0.023303
v -0.002981 -0.062644 0.023303
v -0.002783 -0.062996 0.023509
v -0.002783 -0.062996 0.023509
v -0.002981 -0.062644 0.023303
v -0.002975 -0.062698 0.023555
v -0.002783 -0.062996 0.023509
v -0.002975 -0.062698 0.023555
v -0.002808 -0.063020 0.023623
v -0.002808 -0.063020 0.023623
v -0.002975 -0.062698 0.023555
v -0.003023 -0.062819 0.023824
v -0.003023 -0.062819 0.023824
v -0.002975 -0.062698 0.023555
v -0.003122 -0.062762 0.023880
v -0.003122 -0.062762 0.023880
v -0.002975 -0.062698 0.023555
v -0.003263 -0.062499 0.023625
v -0.003122 -0.062762 0.023880
v -0.003263 -0.062499 0.023625
v -0.003270 -0.062701 0.023942
v -0.003270 -0.062701 0.023942
v -0.003263 -0.062499 0.023625
v -0.003513 -0.062432 0.023679
v -0.003270 -0.062701 0.023942
v -0.003513 -0.062432 0.023679
v -0.003526 -0.062643 0.024000
v -0.002815 -0.066714 0.027337
v -0.003134 -0.066686 0.027816
v -0.002707 -0.066885 0.027013
v -0.003448 -0.067004 0.027942
v -0.002700 -0.066962 0.026926
v -0.003700 -0.067345 0.027957
v -0.002700 -0.067636 0.026252
v -0.003700 -0.068343 0.026959
v -0.008084 -0.065400 -0.025435
v -0.008700 -0.065913 -0.024547
v -0.008700 -0.065400 -0.024410
v -0.008700 -0.066288 -0.024922
v -0.008700 -0.065913 -0.024547
v -0.008084 -0.065400 -0.025435
v -0.008700 -0.066425 -0.025435
v -0.008700 -0.066288 -0.024922
v -0.008084 -0.065400 -0.025435
v -0.008084 -0.065400 -0.025435
v -0.008700 -0.064512 -0.024922
v -0.008700 -0.064375 -0.025435
v -0.008700 -0.064888 -0.024547
v -0.008700 -0.064512 -0.024922
v -0.008084 -0.065400 -0.025435
v -0.008700 -0.065400 -0.024410
v -0.008700 -0.064888 -0.024547
v -0.008084 -0.065400 -0.025435
v -0.003700 -0.068900 -0.025485
v -0.014700 -0.068900 -0.025485
v -0.014700 -0.068755 -0.026212
v -0.003700 -0.068755 -0.026212
v -0.003700 -0.068755 -0.026212
v -0.014700 -0.068755 -0.026212
v -0.014700 -0.068343 -0.026829
v -0.003700 -0.068343 -0.026829
v -0.003700 -0.068900 0.025615
v -0.003700 -0.068900 -0.025485
v -0.002700 -0.067900 0.025615
v -0.002700 -0.067900 -0.025485
v -0.003700 -0.068343 0.026959
v -0.014700 -0.068343 0.026959
v -0.014700 -0.068755 0.026342
v -0.003700 -0.068755 0.026342
v -0.003700 -0.068755 0.026342
v -0.014700 -0.068755 0.026342
v -0.014700 -0.068900 0.025615
v -0.003700 -0.068900 0.025615
v -0.008084 -0.065400 0.025565
v -0.008700 -0.065913 0.026453
v -0.008700 -0.065400 0.026590
v -0.008700 -0.066288 0.026077
v -0.008700 -0.065913 0.026453
v -0.008084 -0.065400 0.025565
v -0.008700 -0.066425 0.025565
v -0.008700 -0.066288 0.026077
v -0.008084 -0.065400 0.025565
v -0.008084 -0.065400 0.025565
v -0.008700 -0.064512 0.026077
v -0.008700 -0.064375 0.025565
v -0.008700 -0.064888 0.026453
v -0.008700 -0.064512 0.026077
v -0.008084 -0.065400 0.025565
v -0.008700 -0.065400 0.026590
v -0.008700 -0.064888 0.026453
v -0.008084 -0.065400 0.025565
v -0.002700 -0.067900 -0.025485
v -0.003700 -0.068900 -0.025485
v -0.003700 -0.068755 -0.026212
v -0.002700 -0.067832 -0.025830
v -0.002700 -0.067832 -0.025830
v -0.003700 -0.068755 -0.026212
v -0.003700 -0.068343 -0.026829
v -0.002700 -0.067636 -0.026122
v -0.002700 -0.067636 0.026252
v -0.003700 -0.068343 0.026959
v -0.003700 -0.068755 0.026342
v -0.002700 -0.067832 0.025960
v -0.002700 -0.067832 0.025960
v -0.003700 -0.068755 0.026342
v -0.003700 -0.068900 0.025615
v -0.002700 -0.067900 0.025615
f 1 2 3
f 3 2 4
f 5 6 7
f 7 6 8
f 9 10 11
f 11 10 12
f 13 14 15
f 15 14 16
f 17 18 19
f 19 18 20
f 21 22 23
f 23 22 24
f 25 26 27
f 27 26 28
f 29 30 31
f 31 30 32
f 33 34 35
f 35 34 36
f 37 38 39
f 39 38 40
f 41 42 43
f 43 42 44
f 45 46 47
f 47 46 48
f 49 50 51
f 52 53 54
f 55 56 57
f 58 59 60
f 61 62 63
f 64 65 66
f 67 68 69
f 70 71 72
f 73 74 75
f 76 77 78
f 79 80 81
f 82 83 84
f 85 86 87
f 87 86 88
f 87 88 89
f 89 88 90
f 89 90 91
f 91 90 92
f 93 94 95
f 95 94 96
f 95 96 97
f 98 99 100
f 100 99 101
f 100 101 102
f 102 101 103
f 102 103 104
f 104 103 97
f 104 97 105
f 105 97 96
f 106 107 108
f 108 107 109
f 110 111 112
f 112 111 113
f 114 115 116
f 116 115 117
f 118 119 120
f 121 122 120
f 120 122 123
f 120 123 118
f 124 125 126
f 126 125 127
f 126 127 128
f 128 127 129
f 128 129 121
f 121 129 130
f 121 130 122
f 131 132 133
f 131 133 134
f 135 136 137
f 135 137 138
f 139 140 141
f 141 140 142
f 141 142 143
f 144 145 146
f 146 145 147
f 146 147 148
f 149 150 151
f 146 152 144
f 144 152 153
f 144 153 142
f 142 153 154
f 142 154 143
f 155 156 157
f 157 156 158
f 157 158 159
f 159 158 160
f 159 160 161
f 161 160 149
f 161 149 162
f 162 149 151
f 162 151 163
f 164 146 165
f 165 146 148
f 165 148 166
f 166 148 155
f 166 155 167
f 167 155 157
f 168 169 170
f 168 170 171
f 172 173 174
f 172 174 175
f 176 177 178
f 178 177 179
f 178 179 180
f 180 179 181
f 182 183 184
f 184 183 185
f 186 187 188
f 189 190 191
f 191 192 189
f 189 192 186
f 189 186 193
f 193 186 188
f 194 195 196
f 196 195 197
f 198 199 200
f 200 199 201
f 200 201 202
f 202 201 203
f 204 205 206
f 204 206 207
f 208 209 210
f 208 210 211
f 212 213 214
f 212 214 215
f 216 217 218
f 216 218 219
f 220 221 222
f 222 221 223
f 224 225 226
f 226 225 227
f 228 229 230
f 230 229 231
f 232 233 234
f 232 234 235
f 236 237 238
f 236 238 239
f 240 241 242
f 240 242 243
f 244 245 246
f 244 246 247
f 248 249 250
f 250 249 251
f 252 253 254
f 254 253 255
f 254 255 256
f 256 255 257
f 256 257 258
f 252 254 259
f 259 254 260
f 259 260 261
f 261 260 248
f 248 260 262
f 248 262 249
f 251 263 250
f 250 263 264
f 250 264 265
f 264 266 265
f 265 266 267
f 265 267 268
f 268 267 269
f 268 269 270
f 270 269 258
f 270 258 271
f 271 258 257
f 272 273 274
f 275 276 277
f 277 276 278
f 277 278 274
f 274 278 279
f 274 279 272
f 280 281 282
f 282 281 283
f 284 285 286
f 286 285 287
f 288 289 290
f 288 290 291
f 292 293 294
f 295 296 297
f 297 296 298
f 297 298 299
f 299 298 300
f 299 300 301
f 301 300 302
f 303 302 304
f 304 302 300
f 304 300 305
f 305 300 294
f 305 294 306
f 306 294 293
f 291 290 294
f 294 290 307
f 294 307 292
f 308 309 310
f 310 309 311
f 312 313 314
f 314 313 315
f 316 317 318
f 318 317 319
f 318 319 320
f 320 319 321
f 320 321 322
f 322 321 323
f 324 325 326
f 327 328 329
f 329 330 327
f 327 330 331
f 327 331 332
f 332 331 333
f 332 333 334
f 334 333 335
f 334 335 336
f 325 337 326
f 326 337 338
f 326 338 328
f 328 338 339
f 328 339 329
f 340 336 341
f 341 336 335
f 341 335 342
f 342 335 343
f 342 343 344
f 344 343 345
f 344 345 346
f 346 345 324
f 346 324 347
f 347 324 326
f 348 349 350
f 351 352 353
f 354 355 356
f 357 358 359
f 360 361 362
f 363 364 365
f 366 367 368
f 369 370 371
f 372 373 374
f 375 376 377
f 378 379 380
f 381 382 383
f 384 385 386
f 387 388 389
f 390 391 392
f 393 394 395
f 396 397 398
f 399 400 401
f 402 403 404
f 405 406 407
f 408 409 410
f 411 412 413
f 411 413 414
f 415 416 417
f 415 417 418
f 419 420 421
f 422 423 424
f 425 426 427
f 428 429 430
f 431 432 433
f 434 435 436
f 437 438 439
f 440 441 442
f 443 444 445
f 446 447 448
f 446 448 449
f 450 451 452
f 450 452 453
f 454 455 456
f 457 458 459
f 460 461 462
f 463 464 465
f 466 467 468
f 469 470 471
f 472 473 474
f 475 476 477
f 478 479 480
f 481 482 483
f 484 485 486
f 487 488 489
f 490 491 492
f 493 494 495
f 496 497 498
f 499 500 501
f 502 503 504
f 505 506 507
f 508 509 510
f 510 509 511
f 512 513 514
f 514 513 515
f 516 517 518
f 518 517 519
f 520 521 522
f 522 521 523
f 524 525 526
f 526 525 527
f 528 529 530
f 530 529 531
f 532 533 534
f 534 533 535
f 536 537 538
f 538 537 539
f 538 539 540
f 540 539 541
f 540 541 542
f 542 541 543
f 544 545 546
f 547 548 546
f 546 548 549
f 546 549 544
f 550 551 552
f 552 551 553
f 554 555 556
f 556 555 557
f 558 559 560
f 561 562 563
f 564 565 560
f 560 565 566
f 560 566 558
f 558 566 561
f 558 561 567
f 567 561 563
f 568 569 570
f 570 569 571
f 572 573 574
f 574 573 575
f 576 577 578
f 578 577 579
f 580 581 582
f 582 581 583
f 584 585 586
f 586 585 587
f 588 589 590
f 590 589 591
f 592 593 594
f 594 593 595
f 596 597 598
f 598 597 599
f 600 601 602
f 602 601 603
f 604 605 606
f 606 605 607
f 608 609 610
f 610 609 611
f 612 613 614
f 614 613 615
f 616 617 618
f 618 617 619
f 620 621 622
f 622 621 623
f 624 625 626
f 626 625 627
f 628 629 630
f 630 629 631
f 632 633 634
f 634 633 635
f 636 637 638
f 639 636 640
f 640 636 638
f 640 638 641
f 641 638 642
f 643 644 645
f 645 644 646
f 645 646 647
f 647 646 648
f 648 646 649
f 649 646 650
f 649 650 651
f 652 653 654
f 655 656 657
f 652 654 658
f 659 655 660
f 660 655 657
f 660 657 654
f 654 657 661
f 654 661 658
f 662 663 664
f 665 666 667
f 668 669 670
f 668 670 671
f 672 673 674
f 672 674 675
f 676 677 678
f 679 680 681
f 682 683 684
f 682 684 685
f 686 687 688
f 686 688 689
f 690 662 664
f 667 691 665
f 692 693 694
f 695 696 697
f 698 699 700
f 701 702 703
f 704 705 706
f 707 708 709
f 710 711 712
f 713 714 715
f 716 717 718
f 719 720 721
f 722 723 724
f 725 726 727
f 728 729 730
f 731 732 733
f 734 735 736
f 737 738 739
f 740 741 742
f 743 744 745
f 745 744 746
f 745 746 747
f 747 746 748
f 747 748 749
f 749 748 750
f 751 752 753
f 754 755 756
f 757 758 759
f 760 761 762
f 763 764 765
f 766 767 768
f 769 770 771
f 769 771 772
f 773 774 775
f 773 775 776
f 777 778 779
f 779 778 780
f 781 782 783
f 781 783 784
f 785 786 787
f 785 787 788
f 789 790 791
f 792 793 794
f 795 796 797
f 798 799 800
f 801 802 803
f 804 805 806
f 807 808 809
f 807 809 810
f 811 812 813
f 811 813 814
f 815 816 817
f 815 817 818
f 819 820 821
f 819 821 822
f 823 824 825
f 825 824 826
f 827 828 829
f 829 828 830
f 831 832 833
f 833 832 834
f 835 836 837
f 837 836 838
f 839 840 841
f 841 840 842
f 843 844 845
f 845 844 846
f 847 848 849
f 849 848 850
f 851 852 853
f 853 852 854
f 855 856 857
f 857 856 858
f 859 860 861
f 861 860 862
f 863 864 865
f 865 864 866
f 867 868 869
f 869 868 870
f 871 872 873
f 874 875 876
f 877 878 879
f 880 881 882
f 883 884 885
f 886 887 888
f 889 890 891
f 892 893 894
f 895 896 897
f 898 899 900
f 901 902 903
f 904 905 906
f 907 908 909
f 909 908 910
f 909 910 911
f 911 910 912
f 911 912 913
f 913 912 914
f 915 916 917
f 917 916 918
f 917 918 919
f 920 921 922
f 922 921 923
f 922 923 924
f 924 923 925
f 924 925 926
f 926 925 919
f 926 919 927
f 927 919 918
f 928 929 930
f 930 929 931
f 932 933 934
f 934 933 935
f 936 937 938
f 938 937 939
f 940 941 942
f 943 944 942
f 942 944 945
f 942 945 940
f 946 947 948
f 948 947 949
f 948 949 950
f 950 949 951
f 950 951 943
f 943 951 952
f 943 952 944
f 953 954 955
f 953 955 956
f 957 958 959
f 957 959 960
f 961 962 963
f 963 962 964
f 963 964 965
f 966 967 968
f 968 967 969
f 968 969 970
f 971 972 973
f 968 974 966
f 966 974 975
f 966 975 964
f 964 975 976
f 964 976 965
f 977 978 979
f 979 978 980
f 979 980 981
f 981 980 982
f 981 982 983
f 983 982 971
f 983 971 984
f 984 971 973
f 984 973 985
f 986 968 987
f 987 968 970
f 987 970 988
f 988 970 977
f 988 977 989
f 989 977 979
f 990 991 992
f 990 992 993
f 994 995 996
f 994 996 997
f 998 999 1000
f 1000 999 1001
f 1000 1001 1002
f 1002 1001 1003
f 1004 1005 1006
f 1006 1005 1007
f 1008 1009 1010
f 1010 1009 1011
f 1010 1011 1012
f 1012 1011 1013
f 1012 1013 1014
f 1014 1013 1015
f 1016 1017 1018
f 1018 1017 1019
f 1020 1021 1022
f 1022 1021 1023
f 1022 1023 1024
f 1024 1023 1025
f 1026 1027 1028
f 1026 1028 1029
f 1030 1031 1032
f 1030 1032 1033
f 1034 1035 1036
f 1034 1036 1037
f 1038 1039 1040
f 1038 1040 1041
f 1042 1043 1044
f 1044 1043 1045
f 1046 1047 1048
f 1048 1047 1049
f 1050 1051 1052
f 1052 1051 1053
f 1054 1055 1056
f 1054 1056 1057
f 1058 1059 1060
f 1058 1060 1061
f 1062 1063 1064
f 1062 1064 1065
f 1066 1067 1068
f 1066 1068 1069
f 1070 1071 1072
f 1072 1071 1073
f 1072 1073 1074
f 1074 1073 1075
f 1074 1075 1076
f 1076 1075 1077
f 1077 1075 1078
f 1077 1078 1079
f 1079 1078 1080
f 1079 1080 1081
f 1082 1083 1084
f 1084 1083 1085
f 1084 1085 1080
f 1080 1085 1086
f 1080 1086 1081
f 1084 1087 1082
f 1082 1087 1088
f 1082 1088 1089
f 1089 1088 1090
f 1090 1091 1089
f 1089 1091 1092
f 1089 1092 1070
f 1070 1092 1093
f 1070 1093 1071
f 1094 1095 1096
f 1097 1098 1099
f 1099 1098 1100
f 1099 1100 1096
f 1096 1100 1101
f 1096 1101 1094
f 1102 1103 1104
f 1104 1103 1105
f 1106 1107 1108
f 1108 1107 1109
f 1110 1111 1112
f 1113 1114 1115
f 1115 1114 1116
f 1117 1118 1119
f 1119 1118 1120
f 1119 1120 1121
f 1121 1120 1122
f 1121 1122 1123
f 1123 1122 1124
f 1125 1124 1126
f 1126 1124 1122
f 1126 1122 1127
f 1127 1122 1112
f 1127 1112 1128
f 1128 1112 1111
f 1116 1114 1112
f 1112 1114 1129
f 1112 1129 1110
f 1130 1131 1132
f 1132 1131 1133
f 1134 1135 1136
f 1136 1135 1137
f 1138 1139 1140
f 1140 1139 1141
f 1140 1141 1142
f 1142 1141 1143
f 1142 1143 1144
f 1144 1143 1145
f 1146 1147 1148
f 1149 1150 1151
f 1151 1150 1152
f 1151 1152 1153
f 1153 1152 1154
f 1153 1154 1155
f 1147 1156 1148
f 1148 1156 1157
f 1148 1157 1158
f 1157 1159 1158
f 1158 1159 1160
f 1158 1160 1149
f 1149 1160 1161
f 1149 1161 1150
f 1162 1155 1163
f 1163 1155 1154
f 1163 1154 1164
f 1164 1154 1165
f 1164 1165 1166
f 1166 1165 1167
f 1166 1167 1168
f 1168 1167 1146
f 1168 1146 1169
f 1169 1146 1148
f 1170 1171 1172
f 1173 1174 1175
f 1176 1177 1178
f 1179 1180 1181
f 1182 1183 1184
f 1185 1186 1187
f 1188 1189 1190
f 1191 1192 1193
f 1194 1195 1196
f 1197 1198 1199
f 1200 1201 1202
f 1203 1204 1205
f 1206 1207 1208
f 1209 1210 1211
f 1212 1213 1214
f 1215 1216 1217
f 1218 1219 1220
f 1221 1222 1223
f 1224 1225 1226
f 1227 1228 1229
f 1230 1231 1232
f 1233 1234 1235
f 1233 1235 1236
f 1237 1238 1239
f 1237 1239 1240
f 1241 1242 1243
f 1244 1245 1246
f 1247 1248 1249
f 1250 1251 1252
f 1253 1254 1255
f 1256 1257 1258
f 1259 1260 1261
f 1262 1263 1264
f 1265 1266 1267
f 1268 1269 1270
f 1268 1270 1271
f 1272 1273 1274
f 1272 1274 1275
f 1276 1277 1278
f 1279 1280 1281
f 1282 1283 1284
f 1285 1286 1287
f 1288 1289 1290
f 1291 1292 1293
f 1294 1295 1296
f 1297 1298 1299
f 1300 1301 1302
f 1303 1304 1305
f 1306 1307 1308
f 1309 1310 1311
f 1312 1313 1314
f 1315 1316 1317
f 1318 1319 1320
f 1321 1322 1323
f 1324 1325 1326
f 1327 1328 1329
f 1330 1331 1332
f 1332 1331 1333
f 1334 1335 1336
f 1336 1335 1337
f 1338 1339 1340
f 1340 1339 1341
f 1342 1343 1344
f 1344 1343 1345
f 1346 1347 1348
f 1348 1347 1349
f 1350 1351 1352
f 1352 1351 1353
f 1354 1355 1356
f 1356 1355 1357
f 1358 1359 1360
f 1360 1359 1361
f 1360 1361 1362
f 1362 1361 1363
f 1362 1363 1364
f 1364 1363 1365
f 1366 1367 1368
f 1369 1370 1368
f 1368 1370 1371
f 1368 1371 1366
f 1372 1373 1374
f 1374 1373 1375
f 1376 1377 1378
f 1378 1377 1379
f 1380 1381 1382
f 1382 1381 1383
f 1384 1385 1386
f 1386 1387 1384
f 1384 1387 1388
f 1384 1388 1383
f 1383 1388 1389
f 1383 1389 1382
f 1390 1391 1392
f 1392 1391 1393
f 1394 1395 1396
f 1396 1395 1397
f 1398 1399 1400
f 1400 1399 1401
f 1402 1403 1404
f 1404 1403 1405
f 1406 1407 1408
f 1408 1407 1409
f 1410 1411 1412
f 1412 1411 1413
f 1414 1415 1416
f 1416 1415 1417
f 1418 1419 1420
f 1420 1419 1421
f 1422 1423 1424
f 1424 1423 1425
f 1426 1427 1428
f 1428 1427 1429
f 1430 1431 1432
f 1432 1431 1433
f 1434 1435 1436
f 1436 1435 1437
f 1438 1439 1440
f 1440 1439 1441
f 1442 1443 1444
f 1444 1443 1445
f 1446 1447 1448
f 1448 1447 1449
f 1450 1451 1452
f 1452 1451 1453
f 1454 1455 1456
f 1456 1455 1457
f 1458 1459 1460
f 1461 1458 1462
f 1462 1458 1460
f 1462 1460 1463
f 1463 1460 1464
f 1465 1466 1467
f 1467 1466 1468
f 1467 1468 1469
f 1469 1468 1470
f 1470 1468 1471
f 1471 1468 1472
f 1471 1472 1473
f 1474 1475 1476
f 1477 1478 1479
f 1474 1476 1480
f 1481 1477 1482
f 1482 1477 1479
f 1482 1479 1476
f 1476 1479 1483
f 1476 1483 1480
f 1484 1485 1486
f 1487 1488 1489
f 1490 1491 1492
f 1490 1492 1493
f 1494 1495 1496
f 1494 1496 1497
f 1498 1499 1500
f 1501 1502 1503
f 1504 1505 1506
f 1504 1506 1507
f 1508 1509 1510
f 1508 1510 1511
f 1512 1484 1486
f 1489 1513 1487
f 1514 1515 1516
f 1517 1518 1519
f 1520 1521 1522
f 1523 1524 1525
f 1526 1527 1528
f 1529 1530 1531
f 1532 1533 1534
f 1535 1536 1537
f 1538 1539 1540
f 1541 1542 1543
f 1544 1545 1546
f 1547 1548 1549
f 1550 1551 1552
f 1553 1554 1555
f 1556 1557 1558
f 1559 1560 1561
f 1562 1563 1564
f 1565 1566 1567
f 1567 1566 1568
f 1567 1568 1569
f 1569 1568 1570
f 1569 1570 1571
f 1571 1570 1572
f 1573 1574 1575
f 1576 1577 1578
f 1579 1580 1581
f 1582 1583 1584
f 1585 1586 1587
f 1588 1589 1590
f 1591 1592 1593
f 1591 1593 1594
f 1595 1596 1597
f 1595 1597 1598
f 1599 1600 1601
f 1601 1600 1602
f 1603 1604 1605
f 1603 1605 1606
f 1607 1608 1609
f 1607 1609 1610
f 1611 1612 1613
f 1614 1615 1616
f 1617 1618 1619
f 1620 1621 1622
f 1623 1624 1625
f 1626 1627 1628
f 1629 1630 1631
f 1629 1631 1632
f 1633 1634 1635
f 1633 1635 1636
f 1637 1638 1639
f 1637 1639 1640
f 1641 1642 1643
f 1641 1643 1644
