v -0.028000 -0.019000 0.019000
v -0.028000 0.019000 0.019000
v -0.074300 -0.019000 0.019000
v -0.074300 0.019000 0.019000
v -0.033686 -0.019000 0.011200
v -0.071800 -0.019000 0.013600
v -0.033100 -0.019000 0.010614
v -0.071000 -0.019000 0.013386
v -0.032300 -0.019000 0.010400
v -0.033900 -0.019000 -0.012000
v -0.071800 -0.019000 -0.010400
v -0.071000 -0.019000 -0.010614
v -0.028000 -0.019000 0.019000
v -0.030700 -0.019000 -0.012000
v -0.028000 -0.019000 -0.019000
v -0.030914 -0.019000 -0.012800
v -0.031500 -0.019000 -0.013386
v -0.032300 -0.019000 -0.013600
v -0.074300 -0.019000 -0.019000
v -0.033100 -0.019000 -0.013386
v -0.033686 -0.019000 -0.012800
v -0.070414 -0.019000 -0.011200
v -0.070200 -0.019000 -0.012000
v -0.030700 -0.019000 0.012000
v -0.030914 -0.019000 0.011200
v -0.033100 -0.019000 -0.010614
v -0.031500 -0.019000 0.010614
v -0.073400 -0.019000 0.012000
v -0.073186 -0.019000 0.012800
v -0.074300 -0.019000 0.019000
v -0.072600 -0.019000 0.013386
v -0.070414 -0.019000 -0.012800
v -0.071000 -0.019000 -0.013386
v -0.071800 -0.019000 -0.013600
v -0.072600 -0.019000 -0.013386
v -0.073186 -0.019000 -0.012800
v -0.073400 -0.019000 -0.012000
v -0.073186 -0.019000 -0.011200
v -0.070414 -0.019000 0.012800
v -0.070200 -0.019000 0.012000
v -0.070414 -0.019000 0.011200
v -0.032300 -0.019000 0.013600
v -0.033100 -0.019000 0.013386
v -0.033686 -0.019000 0.012800
v -0.033900 -0.019000 0.012000
v -0.031500 -0.019000 0.013386
v -0.030914 -0.019000 0.012800
v -0.033686 -0.019000 -0.011200
v -0.071000 -0.019000 0.010614
v -0.032300 -0.019000 -0.010400
v -0.031500 -0.019000 -0.010614
v -0.030914 -0.019000 -0.011200
v -0.071800 -0.019000 0.010400
v -0.072600 -0.019000 -0.010614
v -0.072600 -0.019000 0.010614
v -0.073186 -0.019000 0.011200
v -0.028000 0.019000 -0.019000
v -0.028000 -0.019000 -0.019000
v -0.074300 0.019000 -0.019000
v -0.074300 -0.019000 -0.019000
v -0.031500 0.019000 0.010614
v -0.030914 0.019000 0.011200
v -0.028000 0.019000 -0.019000
v -0.030700 0.019000 0.012000
v -0.028000 0.019000 0.019000
v -0.031500 0.019000 -0.013386
v -0.030914 0.019000 -0.012800
v -0.030700 0.019000 -0.012000
v -0.030914 0.019000 -0.011200
v -0.032300 0.019000 0.010400
v -0.033100 0.019000 0.010614
v -0.030914 0.019000 0.012800
v -0.031500 0.019000 0.013386
v -0.032300 0.019000 0.013600
v -0.074300 0.019000 -0.019000
v -0.074300 0.019000 0.019000
v -0.073400 0.019000 -0.012000
v -0.073186 0.019000 -0.011200
v -0.033686 0.019000 -0.011200
v -0.071800 0.019000 -0.013600
v -0.033100 0.019000 -0.010614
v -0.071000 0.019000 -0.013386
v -0.032300 0.019000 -0.010400
v -0.031500 0.019000 -0.010614
v -0.033900 0.019000 0.012000
v -0.033686 0.019000 0.011200
v -0.071800 0.019000 0.010400
v -0.071000 0.019000 0.010614
v -0.033686 0.019000 0.012800
v -0.070414 0.019000 0.011200
v -0.033100 0.019000 0.013386
v -0.070200 0.019000 0.012000
v -0.070414 0.019000 0.012800
v -0.071000 0.019000 0.013386
v -0.071800 0.019000 0.013600
v -0.072600 0.019000 0.013386
v -0.070414 0.019000 -0.012800
v -0.070200 0.019000 -0.012000
v -0.070414 0.019000 -0.011200
v -0.073186 0.019000 -0.012800
v -0.072600 0.019000 -0.013386
v -0.033900 0.019000 -0.012000
v -0.033686 0.019000 -0.012800
v -0.033100 0.019000 -0.013386
v -0.032300 0.019000 -0.013600
v -0.073186 0.019000 0.012800
v -0.073400 0.019000 0.012000
v -0.073186 0.019000 0.011200
v -0.072600 0.019000 0.010614
v -0.071000 0.019000 -0.010614
v -0.071800 0.019000 -0.010400
v -0.072600 0.019000 -0.010614
v -0.028000 0.003350 -0.013593
v -0.028000 0.000000 -0.014000
v -0.028000 0.019000 -0.019000
v -0.028000 -0.019000 -0.019000
v -0.028000 -0.003350 -0.013593
v -0.028000 -0.006506 -0.012396
v -0.028000 -0.009284 -0.010479
v -0.028000 -0.011522 -0.007953
v -0.028000 -0.013090 -0.004964
v -0.028000 -0.013898 -0.001688
v -0.028000 -0.013898 0.001688
v -0.028000 -0.019000 0.019000
v -0.028000 -0.013090 0.004964
v -0.028000 -0.011522 0.007953
v -0.028000 0.003350 0.013593
v -0.028000 0.019000 0.019000
v -0.028000 0.000000 0.014000
v -0.028000 -0.003350 0.013593
v -0.028000 0.006506 0.012396
v -0.028000 0.009284 0.010479
v -0.028000 0.011522 0.007953
v -0.028000 0.013090 -0.004964
v -0.028000 0.011522 -0.007953
v -0.028000 -0.009284 0.010479
v -0.028000 -0.006506 0.012396
v -0.028000 0.009284 -0.010479
v -0.028000 0.006506 -0.012396
v -0.028000 0.013090 0.004964
v -0.028000 0.013898 0.001688
v -0.028000 0.013898 -0.001688
v -0.074300 0.019000 -0.019000
v -0.074300 -0.019000 -0.019000
v -0.074300 0.019000 0.019000
v -0.074300 -0.019000 0.019000
v -0.028000 0.000000 0.014000
v -0.000000 0.003350 0.013593
v -0.028000 0.003350 0.013593
v -0.028000 0.003350 0.013593
v -0.000000 0.003350 0.013593
v -0.000000 0.006506 0.012396
v -0.028000 0.006506 0.012396
v -0.028000 0.006506 0.012396
v -0.000000 0.006506 0.012396
v -0.000000 0.009284 0.010479
v -0.028000 0.009284 0.010479
v -0.028000 0.009284 0.010479
v -0.000000 0.009284 0.010479
v -0.000000 0.011522 0.007953
v -0.028000 0.011522 0.007953
v -0.028000 0.011522 0.007953
v -0.000000 0.011522 0.007953
v -0.000000 0.013090 0.004964
v -0.028000 0.013090 0.004964
v -0.028000 0.013090 0.004964
v -0.000000 0.013090 0.004964
v -0.000000 0.013898 0.001688
v -0.028000 0.013898 0.001688
v -0.028000 0.013898 0.001688
v -0.000000 0.013898 0.001688
v -0.000000 0.013898 -0.001688
v -0.028000 0.013898 -0.001688
v -0.028000 0.013898 -0.001688
v -0.000000 0.013898 -0.001688
v -0.000000 0.013090 -0.004964
v -0.028000 0.013090 -0.004964
v -0.028000 0.013090 -0.004964
v -0.000000 0.013090 -0.004964
v -0.000000 0.011522 -0.007953
v -0.028000 0.011522 -0.007953
v -0.028000 0.011522 -0.007953
v -0.000000 0.011522 -0.007953
v -0.000000 0.009284 -0.010479
v -0.028000 0.009284 -0.010479
v -0.028000 0.009284 -0.010479
v -0.000000 0.009284 -0.010479
v -0.000000 0.006506 -0.012396
v -0.028000 0.006506 -0.012396
v -0.028000 0.006506 -0.012396
v -0.000000 0.006506 -0.012396
v -0.000000 0.003350 -0.013593
v -0.028000 0.003350 -0.013593
v -0.028000 0.003350 -0.013593
v -0.000000 0.003350 -0.013593
v -0.000000 0.000000 -0.014000
v -0.028000 0.000000 -0.014000
v -0.028000 0.000000 -0.014000
v -0.000000 0.000000 -0.014000
v -0.000000 -0.003350 -0.013593
v -0.028000 -0.003350 -0.013593
v -0.028000 -0.003350 -0.013593
v -0.000000 -0.003350 -0.013593
v -0.000000 -0.006506 -0.012396
v -0.028000 -0.006506 -0.012396
v -0.028000 -0.006506 -0.012396
v -0.000000 -0.006506 -0.012396
v -0.000000 -0.009284 -0.010479
v -0.028000 -0.009284 -0.010479
v -0.028000 -0.009284 -0.010479
v -0.000000 -0.009284 -0.010479
v -0.000000 -0.011522 -0.007953
v -0.028000 -0.011522 -0.007953
v -0.028000 -0.011522 -0.007953
v -0.000000 -0.011522 -0.007953
v -0.000000 -0.013090 -0.004964
v -0.028000 -0.013090 -0.004964
v -0.028000 -0.013090 -0.004964
v -0.000000 -0.013090 -0.004964
v -0.000000 -0.013898 -0.001688
v -0.028000 -0.013898 -0.001688
v -0.028000 -0.013898 -0.001688
v -0.000000 -0.013898 -0.001688
v -0.000000 -0.013898 0.001688
v -0.028000 -0.013898 0.001688
v -0.028000 -0.013898 0.001688
v -0.000000 -0.013898 0.001688
v -0.000000 -0.013090 0.004964
v -0.028000 -0.013090 0.004964
v -0.028000 -0.013090 0.004964
v -0.000000 -0.013090 0.004964
v -0.000000 -0.011522 0.007953
v -0.028000 -0.011522 0.007953
v -0.028000 -0.011522 0.007953
v -0.000000 -0.011522 0.007953
v -0.000000 -0.009284 0.010479
v -0.028000 -0.009284 0.010479
v -0.028000 -0.009284 0.010479
v -0.000000 -0.009284 0.010479
v -0.000000 -0.006506 0.012396
v -0.028000 -0.006506 0.012396
v -0.028000 -0.006506 0.012396
v -0.000000 -0.006506 0.012396
v -0.000000 -0.003350 0.013593
v -0.028000 -0.003350 0.013593
v -0.028000 -0.003350 0.013593
v -0.000000 -0.003350 0.013593
v -0.000000 0.000000 0.014000
v -0.028000 0.000000 0.014000
v -0.000000 0.000000 0.014000
v -0.000000 0.000000 -0.014000
v -0.000000 0.003350 -0.013593
v -0.000000 0.000000 0.000000
v -0.000000 -0.003350 -0.013593
v -0.000000 -0.011522 -0.007953
v -0.000000 -0.009284 -0.010479
v -0.000000 -0.006506 -0.012396
v -0.000000 -0.013898 0.001688
v -0.000000 -0.013898 -0.001688
v -0.000000 -0.013090 -0.004964
v -0.000000 -0.009284 0.010479
v -0.000000 -0.011522 0.007953
v -0.000000 -0.013090 0.004964
v -0.000000 0.000000 0.014000
v -0.000000 -0.003350 0.013593
v -0.000000 -0.006506 0.012396
v -0.000000 0.009284 0.010479
v -0.000000 0.006506 0.012396
v -0.000000 0.003350 0.013593
v -0.000000 0.013898 0.001688
v -0.000000 0.013090 0.004964
v -0.000000 0.011522 0.007953
v -0.000000 0.011522 -0.007953
v -0.000000 0.013090 -0.004964
v -0.000000 0.013898 -0.001688
v -0.000000 0.006506 -0.012396
v -0.000000 0.009284 -0.010479
v -0.073400 0.019000 -0.012000
v -0.073400 -0.019000 -0.012000
v -0.073186 0.019000 -0.012800
v -0.073186 -0.019000 -0.012800
v -0.073186 0.019000 -0.012800
v -0.073186 -0.019000 -0.012800
v -0.072600 0.019000 -0.013386
v -0.072600 -0.019000 -0.013386
v -0.072600 0.019000 -0.013386
v -0.072600 -0.019000 -0.013386
v -0.071800 0.019000 -0.013600
v -0.071800 -0.019000 -0.013600
v -0.071800 0.019000 -0.013600
v -0.071800 -0.019000 -0.013600
v -0.071000 0.019000 -0.013386
v -0.071000 -0.019000 -0.013386
v -0.071000 0.019000 -0.013386
v -0.071000 -0.019000 -0.013386
v -0.070414 0.019000 -0.012800
v -0.070414 -0.019000 -0.012800
v -0.070414 0.019000 -0.012800
v -0.070414 -0.019000 -0.012800
v -0.070200 0.019000 -0.012000
v -0.070200 -0.019000 -0.012000
v -0.070200 0.019000 -0.012000
v -0.070200 -0.019000 -0.012000
v -0.070414 0.019000 -0.011200
v -0.070414 -0.019000 -0.011200
v -0.070414 0.019000 -0.011200
v -0.070414 -0.019000 -0.011200
v -0.071000 0.019000 -0.010614
v -0.071000 -0.019000 -0.010614
v -0.071000 0.019000 -0.010614
v -0.071000 -0.019000 -0.010614
v -0.071800 0.019000 -0.010400
v -0.071800 -0.019000 -0.010400
v -0.071800 0.019000 -0.010400
v -0.071800 -0.019000 -0.010400
v -0.072600 0.019000 -0.010614
v -0.072600 -0.019000 -0.010614
v -0.072600 0.019000 -0.010614
v -0.072600 -0.019000 -0.010614
v -0.073186 0.019000 -0.011200
v -0.073186 -0.019000 -0.011200
v -0.073186 0.019000 -0.011200
v -0.073186 -0.019000 -0.011200
v -0.073400 0.019000 -0.012000
v -0.073400 -0.019000 -0.012000
v -0.033900 0.019000 0.012000
v -0.033900 -0.019000 0.012000
v -0.033686 0.019000 0.011200
v -0.033686 -0.019000 0.011200
v -0.033686 0.019000 0.011200
v -0.033686 -0.019000 0.011200
v -0.033100 0.019000 0.010614
v -0.033100 -0.019000 0.010614
v -0.033100 0.019000 0.010614
v -0.033100 -0.019000 0.010614
v -0.032300 0.019000 0.010400
v -0.032300 -0.019000 0.010400
v -0.032300 0.019000 0.010400
v -0.032300 -0.019000 0.010400
v -0.031500 0.019000 0.010614
v -0.031500 -0.019000 0.010614
v -0.031500 0.019000 0.010614
v -0.031500 -0.019000 0.010614
v -0.030914 0.019000 0.011200
v -0.030914 -0.019000 0.011200
v -0.030914 0.019000 0.011200
v -0.030914 -0.019000 0.011200
v -0.030700 0.019000 0.012000
v -0.030700 -0.019000 0.012000
v -0.030700 0.019000 0.012000
v -0.030700 -0.019000 0.012000
v -0.030914 0.019000 0.012800
v -0.030914 -0.019000 0.012800
v -0.030914 0.019000 0.012800
v -0.030914 -0.019000 0.012800
v -0.031500 0.019000 0.013386
v -0.031500 -0.019000 0.013386
v -0.031500 0.019000 0.013386
v -0.031500 -0.019000 0.013386
v -0.032300 0.019000 0.013600
v -0.032300 -0.019000 0.013600
v -0.032300 0.019000 0.013600
v -0.032300 -0.019000 0.013600
v -0.033100 0.019000 0.013386
v -0.033100 -0.019000 0.013386
v -0.033100 0.019000 0.013386
v -0.033100 -0.019000 0.013386
v -0.033686 0.019000 0.012800
v -0.033686 -0.019000 0.012800
v -0.033686 0.019000 0.012800
v -0.033686 -0.019000 0.012800
v -0.033900 0.019000 0.012000
v -0.033900 -0.019000 0.012000
v -0.033900 0.019000 -0.012000
v -0.033900 -0.019000 -0.012000
v -0.033686 0.019000 -0.012800
v -0.033686 -0.019000 -0.012800
v -0.033686 0.019000 -0.012800
v -0.033686 -0.019000 -0.012800
v -0.033100 0.019000 -0.013386
v -0.033100 -0.019000 -0.013386
v -0.033100 0.019000 -0.013386
v -0.033100 -0.019000 -0.013386
v -0.032300 0.019000 -0.013600
v -0.032300 -0.019000 -0.013600
v -0.032300 0.019000 -0.013600
v -0.032300 -0.019000 -0.013600
v -0.031500 0.019000 -0.013386
v -0.031500 -0.019000 -0.013386
v -0.031500 0.019000 -0.013386
v -0.031500 -0.019000 -0.013386
v -0.030914 0.019000 -0.012800
v -0.030914 -0.019000 -0.012800
v -0.030914 0.019000 -0.012800
v -0.030914 -0.019000 -0.012800
v -0.030700 0.019000 -0.012000
v -0.030700 -0.019000 -0.012000
v -0.030700 0.019000 -0.012000
v -0.030700 -0.019000 -0.012000
v -0.030914 0.019000 -0.011200
v -0.030914 -0.019000 -0.011200
v -0.030914 0.019000 -0.011200
v -0.030914 -0.019000 -0.011200
v -0.031500 0.019000 -0.010614
v -0.031500 -0.019000 -0.010614
v -0.031500 0.019000 -0.010614
v -0.031500 -0.019000 -0.010614
v -0.032300 0.019000 -0.010400
v -0.032300 -0.019000 -0.010400
v -0.032300 0.019000 -0.010400
v -0.032300 -0.019000 -0.010400
v -0.033100 0.019000 -0.010614
v -0.033100 -0.019000 -0.010614
v -0.033100 0.019000 -0.010614
v -0.033100 -0.019000 -0.010614
v -0.033686 0.019000 -0.011200
v -0.033686 -0.019000 -0.011200
v -0.033686 0.019000 -0.011200
v -0.033686 -0.019000 -0.011200
v -0.033900 0.019000 -0.012000
v -0.033900 -0.019000 -0.012000
v -0.073400 0.019000 0.012000
v -0.073400 -0.019000 0.012000
v -0.073186 0.019000 0.011200
v -0.073186 -0.019000 0.011200
v -0.073186 0.019000 0.011200
v -0.073186 -0.019000 0.011200
v -0.072600 0.019000 0.010614
v -0.072600 -0.019000 0.010614
v -0.072600 0.019000 0.010614
v -0.072600 -0.019000 0.010614
v -0.071800 0.019000 0.010400
v -0.071800 -0.019000 0.010400
v -0.071800 0.019000 0.010400
v -0.071800 -0.019000 0.010400
v -0.071000 0.019000 0.010614
v -0.071000 -0.019000 0.010614
v -0.071000 0.019000 0.010614
v -0.071000 -0.019000 0.010614
v -0.070414 0.019000 0.011200
v -0.070414 -0.019000 0.011200
v -0.070414 0.019000 0.011200
v -0.070414 -0.019000 0.011200
v -0.070200 0.019000 0.012000
v -0.070200 -0.019000 0.012000
v -0.070200 0.019000 0.012000
v -0.070200 -0.019000 0.012000
v -0.070414 0.019000 0.012800
v -0.070414 -0.019000 0.012800
v -0.070414 0.019000 0.012800
v -0.070414 -0.019000 0.012800
v -0.071000 0.019000 0.013386
v -0.071000 -0.019000 0.013386
v -0.071000 0.019000 0.013386
v -0.071000 -0.019000 0.013386
v -0.071800 0.019000 0.013600
v -0.071800 -0.019000 0.013600
v -0.071800 0.019000 0.013600
v -0.071800 -0.019000 0.013600
v -0.072600 0.019000 0.013386
v -0.072600 -0.019000 0.013386
v -0.072600 0.019000 0.013386
v -0.072600 -0.019000 0.013386
v -0.073186 0.019000 0.012800
v -0.073186 -0.019000 0.012800
v -0.073186 0.019000 0.012800
v -0.073186 -0.019000 0.012800
v -0.073400 0.019000 0.012000
v -0.073400 -0.019000 0.012000
f 1 2 3
f 3 2 4
f 5 6 7
f 7 6 8
f 7 8 9
f 10 11 12
f 13 14 15
f 15 14 16
f 16 17 15
f 15 17 18
f 15 18 19
f 19 18 20
f 19 20 21
f 10 12 21
f 21 12 22
f 21 22 23
f 24 25 26
f 26 25 27
f 28 29 30
f 30 29 31
f 30 31 6
f 23 32 21
f 21 32 33
f 21 33 19
f 19 33 34
f 19 34 35
f 35 36 19
f 19 36 37
f 19 37 30
f 30 37 38
f 30 38 28
f 8 39 9
f 9 39 40
f 9 40 41
f 42 13 43
f 43 13 30
f 43 30 44
f 44 30 6
f 44 6 45
f 45 6 5
f 42 46 13
f 13 46 47
f 13 47 24
f 27 9 26
f 26 9 41
f 26 41 48
f 48 41 49
f 48 49 10
f 26 50 24
f 24 50 51
f 24 51 13
f 13 51 52
f 13 52 14
f 10 49 11
f 11 49 53
f 11 53 54
f 54 53 55
f 54 55 38
f 38 55 56
f 38 56 28
f 57 58 59
f 59 58 60
f 61 62 63
f 63 62 64
f 63 64 65
f 66 67 63
f 63 67 68
f 63 68 61
f 61 68 69
f 61 69 70
f 70 69 71
f 64 72 65
f 65 72 73
f 65 73 74
f 75 76 77
f 77 76 78
f 79 80 81
f 81 80 82
f 81 82 83
f 84 85 69
f 69 85 86
f 69 86 71
f 87 88 89
f 89 88 90
f 89 90 91
f 91 90 92
f 91 92 74
f 74 92 93
f 74 93 65
f 65 93 94
f 65 94 76
f 76 94 95
f 76 95 96
f 82 97 83
f 83 97 98
f 83 98 99
f 77 100 75
f 75 100 101
f 75 101 80
f 79 102 80
f 80 102 103
f 80 103 75
f 75 103 104
f 75 104 63
f 63 104 105
f 63 105 66
f 96 106 76
f 76 106 107
f 76 107 78
f 78 107 108
f 78 108 109
f 84 83 85
f 85 83 99
f 85 99 89
f 89 99 110
f 89 110 87
f 87 110 111
f 87 111 109
f 109 111 112
f 109 112 78
f 113 114 115
f 115 114 116
f 116 114 117
f 116 117 118
f 118 119 116
f 116 119 120
f 116 120 121
f 121 122 116
f 116 122 123
f 116 123 124
f 124 123 125
f 124 125 126
f 127 128 129
f 129 128 124
f 129 124 130
f 127 131 128
f 128 131 132
f 128 132 133
f 134 135 115
f 126 136 124
f 124 136 137
f 124 137 130
f 135 138 115
f 115 138 139
f 115 139 113
f 133 140 128
f 128 140 141
f 128 141 115
f 115 141 142
f 115 142 134
f 143 144 145
f 145 144 146
f 147 148 149
f 150 151 152
f 150 152 153
f 154 155 156
f 154 156 157
f 158 159 160
f 158 160 161
f 162 163 164
f 162 164 165
f 166 167 168
f 166 168 169
f 170 171 172
f 170 172 173
f 174 175 176
f 174 176 177
f 178 179 180
f 178 180 181
f 182 183 184
f 182 184 185
f 186 187 188
f 186 188 189
f 190 191 192
f 190 192 193
f 194 195 196
f 194 196 197
f 198 199 200
f 198 200 201
f 202 203 204
f 202 204 205
f 206 207 208
f 206 208 209
f 210 211 212
f 210 212 213
f 214 215 216
f 214 216 217
f 218 219 220
f 218 220 221
f 222 223 224
f 222 224 225
f 226 227 228
f 226 228 229
f 230 231 232
f 230 232 233
f 234 235 236
f 234 236 237
f 238 239 240
f 238 240 241
f 242 243 244
f 242 244 245
f 246 247 248
f 246 248 249
f 147 250 148
f 251 252 253
f 251 253 254
f 255 256 253
f 253 256 257
f 253 257 254
f 258 259 253
f 253 259 260
f 253 260 255
f 261 262 253
f 253 262 263
f 253 263 258
f 264 265 253
f 253 265 266
f 253 266 261
f 267 268 253
f 253 268 269
f 253 269 264
f 270 271 253
f 253 271 272
f 253 272 267
f 273 274 253
f 253 274 275
f 253 275 270
f 252 276 253
f 253 276 277
f 253 277 273
f 278 279 280
f 280 279 281
f 282 283 284
f 284 283 285
f 286 287 288
f 288 287 289
f 290 291 292
f 292 291 293
f 294 295 296
f 296 295 297
f 298 299 300
f 300 299 301
f 302 303 304
f 304 303 305
f 306 307 308
f 308 307 309
f 310 311 312
f 312 311 313
f 314 315 316
f 316 315 317
f 318 319 320
f 320 319 321
f 322 323 324
f 324 323 325
f 326 327 328
f 328 327 329
f 330 331 332
f 332 331 333
f 334 335 336
f 336 335 337
f 338 339 340
f 340 339 341
f 342 343 344
f 344 343 345
f 346 347 348
f 348 347 349
f 350 351 352
f 352 351 353
f 354 355 356
f 356 355 357
f 358 359 360
f 360 359 361
f 362 363 364
f 364 363 365
f 366 367 368
f 368 367 369
f 370 371 372
f 372 371 373
f 374 375 376
f 376 375 377
f 378 379 380
f 380 379 381
f 382 383 384
f 384 383 385
f 386 387 388
f 388 387 389
f 390 391 392
f 392 391 393
f 394 395 396
f 396 395 397
f 398 399 400
f 400 399 401
f 402 403 404
f 404 403 405
f 406 407 408
f 408 407 409
f 410 411 412
f 412 411 413
f 414 415 416
f 416 415 417
f 418 419 420
f 420 419 421
f 422 423 424
f 424 423 425
f 426 427 428
f 428 427 429
f 430 431 432
f 432 431 433
f 434 435 436
f 436 435 437
f 438 439 440
f 440 439 441
f 442 443 444
f 444 443 445
f 446 447 448
f 448 447 449
f 450 451 452
f 452 451 453
f 454 455 456
f 456 455 457
f 458 459 460
f 460 459 461
f 462 463 464
f 464 463 465
f 466 467 468
f 468 467 469
